<?xml version="1.0" encoding="utf-8"?>
<!-- Generator: Adobe Illustrator 26.5.0, SVG Export Plug-In . SVG Version: 6.00 Build 0)  -->
<svg version="1.1" id="Camada_1" xmlns="http://www.w3.org/2000/svg" xmlns:xlink="http://www.w3.org/1999/xlink" x="0px" y="0px"
	 viewBox="0 0 500 500" style="enable-background:new 0 0 500 500;" xml:space="preserve">
<style type="text/css">
	.st0{clip-path:url(#SVGID_00000139978165045559391930000013851824127955931797_);}
	.st1{fill:url(#SVGID_00000110468929529816678390000001276473684319103881_);}
	.st2{clip-path:url(#SVGID_00000156582132094192459130000017901831546777205676_);}
	.st3{fill:url(#SVGID_00000147211786345643295830000001893779597554864775_);}
	.st4{clip-path:url(#SVGID_00000133495487251135376170000006749870497098813592_);}
	.st5{fill:url(#SVGID_00000042736506363318519570000003053885533801053351_);}
	.st6{clip-path:url(#SVGID_00000139266914304641438990000010262941877156234672_);}
	.st7{fill:url(#SVGID_00000112603378008893593980000009550679654152330168_);}
	.st8{clip-path:url(#SVGID_00000127037055936455499560000013412220809712117401_);}
	.st9{fill:url(#SVGID_00000178901104066162474280000014226236938377963665_);}
	.st10{clip-path:url(#SVGID_00000142139311219143290460000011448628431930131072_);}
	.st11{fill:url(#SVGID_00000055703181457550652970000009559314909399529404_);}
	.st12{clip-path:url(#SVGID_00000181766919705608858790000008580104707853021614_);}
	.st13{fill:url(#SVGID_00000155107907294065211220000016224746656145940367_);}
	.st14{clip-path:url(#SVGID_00000148661892785047126890000010060566579226777784_);}
	.st15{fill:url(#SVGID_00000131347159053371622470000001717489825687569061_);}
	.st16{clip-path:url(#SVGID_00000142152170778814497980000016369866342384962432_);}
	.st17{fill:url(#SVGID_00000072269605135156732440000009962359390659851935_);}
	.st18{clip-path:url(#SVGID_00000066516990368306406620000004908483891149167274_);}
	.st19{fill:url(#SVGID_00000140736305890635323760000014801481768624884903_);}
	.st20{clip-path:url(#SVGID_00000167398757082850534750000012285019721047487626_);}
	.st21{fill:url(#SVGID_00000049204441592203096460000010521258014096617879_);}
	.st22{clip-path:url(#SVGID_00000054263645582160512490000003031275552847866281_);}
	.st23{fill:url(#SVGID_00000160884972860662698320000001674681076470569621_);}
	.st24{clip-path:url(#SVGID_00000025418725876135674130000007010665828169154494_);}
	.st25{fill:url(#SVGID_00000098189901752044038560000003370320306313230242_);}
	.st26{clip-path:url(#SVGID_00000145742267524100907980000015615836234137268386_);}
	.st27{fill:url(#SVGID_00000029041776299042710820000008034097546321995697_);}
	.st28{clip-path:url(#SVGID_00000061458155164383798830000006726639365264795572_);}
	.st29{fill:url(#SVGID_00000049910505221368992920000015515971246437833867_);}
	.st30{clip-path:url(#SVGID_00000134230670720528404760000011266154272476387969_);}
	.st31{fill:url(#SVGID_00000023247785278356631640000011729212528113162389_);}
	.st32{clip-path:url(#SVGID_00000180336631911776006200000008190955005308775851_);}
	.st33{fill:url(#SVGID_00000036222609973216096050000013816445455790521479_);}
	.st34{clip-path:url(#SVGID_00000086657872737078192870000000169121050465549754_);}
	.st35{fill:url(#SVGID_00000130623681762279151760000012638871221622327968_);}
	
		.st36{clip-path:url(#SVGID_00000078030475945852932540000015638275646731975569_);fill:url(#SVGID_00000034047959123416999320000011533698168806192003_);}
	
		.st37{clip-path:url(#SVGID_00000085969441926014603550000002783346253355291547_);fill:url(#SVGID_00000021113044556285063460000017767932646698432914_);}
	
		.st38{clip-path:url(#SVGID_00000006673643831232202140000008802466221794562180_);fill:url(#SVGID_00000040540325045322626050000000113786028556038540_);}
	.st39{clip-path:url(#SVGID_00000027590788978863381800000000038815125192137869_);}
	.st40{fill:url(#SVGID_00000107566155114775599690000011604188403162985898_);}
	.st41{clip-path:url(#SVGID_00000085215724233399818720000009490096335215633551_);}
	.st42{fill:url(#SVGID_00000168108594966588013090000007138832068994897297_);}
	.st43{clip-path:url(#SVGID_00000049185405795059716870000013195242671313170315_);}
	.st44{fill:url(#SVGID_00000039851046988624985240000010423877103204052354_);}
	.st45{clip-path:url(#SVGID_00000051375040450599360700000004501263485834942594_);}
	.st46{fill:url(#SVGID_00000086691671392174704810000014100814433157841576_);}
	.st47{clip-path:url(#SVGID_00000072974855454295436900000003161226667813929633_);}
	.st48{fill:url(#SVGID_00000096746405570385504280000001669502703875851395_);}
	
		.st49{clip-path:url(#SVGID_00000026872848906948981190000000690162301846379679_);fill:url(#SVGID_00000004538572847103303920000006761363904760231341_);}
	
		.st50{clip-path:url(#SVGID_00000183213616810709531580000009617992895212264580_);fill:url(#SVGID_00000071527636182819376280000011568115747221512888_);}
	
		.st51{clip-path:url(#SVGID_00000142136038411833605700000001523695250519072417_);fill:url(#SVGID_00000086654219231341149190000007847087641318342558_);}
	
		.st52{clip-path:url(#SVGID_00000123425286719484396540000005294536849528415152_);fill:url(#SVGID_00000170241976020069049540000015810271971546978224_);}
	
		.st53{clip-path:url(#SVGID_00000173857165845730107340000003655836209466255514_);fill:url(#SVGID_00000160192112104521285810000013175894118817642638_);}
	
		.st54{clip-path:url(#SVGID_00000177473010027701325860000013671764036346491576_);fill:url(#SVGID_00000149347629784552924470000015246287377463054487_);}
	
		.st55{clip-path:url(#SVGID_00000005961154743038578580000000963990628525406854_);fill:url(#SVGID_00000139283108876928362990000001813173746509046926_);}
	
		.st56{clip-path:url(#SVGID_00000036228482189611191920000007280897097571846070_);fill:url(#SVGID_00000029025860926176553520000000642088121422686092_);}
	
		.st57{clip-path:url(#SVGID_00000079484481793105594480000017732831364773681308_);fill:url(#SVGID_00000156576531734648058250000009682346255921812138_);}
	
		.st58{clip-path:url(#SVGID_00000127723609595284532090000009496693720475927705_);fill:url(#SVGID_00000078018183646620699040000011756384267284332971_);}
	
		.st59{clip-path:url(#SVGID_00000175287891060207191220000014524098583738084518_);fill:url(#SVGID_00000172440023278950180540000012502977473090582666_);}
	
		.st60{clip-path:url(#SVGID_00000156569495161838550000000004644952264095657345_);fill:url(#SVGID_00000167381681088470894090000010556621704929155741_);}
	.st61{clip-path:url(#SVGID_00000105418617128968905650000009280231907165617291_);}
	.st62{fill:url(#SVGID_00000119819941031927665250000011266781763019097487_);}
	.st63{clip-path:url(#SVGID_00000087404886415818818390000007809331363597803432_);}
	.st64{fill:url(#SVGID_00000136390557079073485130000003460554828423356050_);}
	.st65{clip-path:url(#SVGID_00000028308169057529818060000000080872241340601759_);}
	.st66{fill:url(#SVGID_00000085226753962676186490000013959836713257182089_);}
	.st67{clip-path:url(#SVGID_00000104677636766888807710000000742955098598232981_);}
	.st68{fill:url(#SVGID_00000061466938193746015800000005272791570843691673_);}
	.st69{clip-path:url(#SVGID_00000034052557727993169030000017039415790010609566_);}
	.st70{fill:url(#SVGID_00000132792403507954015010000018096671968010795394_);}
	.st71{clip-path:url(#SVGID_00000116216242879790119780000005449133266698575270_);}
	.st72{fill:url(#SVGID_00000012439143875631160840000008258534332699692690_);}
	.st73{clip-path:url(#SVGID_00000109712393289588771320000008235922670697284774_);}
	.st74{fill:url(#SVGID_00000136394408924892267700000008088086359270806460_);}
	.st75{clip-path:url(#SVGID_00000092416068421380110570000010052211364401629102_);}
	.st76{fill:url(#SVGID_00000088852979701556525650000003169531120367156898_);}
	.st77{clip-path:url(#SVGID_00000106858248090647794820000014918951134279666354_);}
	.st78{fill:url(#SVGID_00000102501998132565512350000006018203814990928830_);}
	.st79{clip-path:url(#SVGID_00000049205311500329786680000001880879965228010883_);}
	.st80{fill:url(#SVGID_00000053541494620903530040000012275322504978499722_);}
</style>
<g>
	<defs>
		<path id="SVGID_00000073696876054364302440000005049261323246242447_" d="M393.5,386.2c0,1.3,0,2.6,0,3.9
			c-1.4,1.3-2.6,2.7-4.5,3.4c-93,0-186,0-279,0c-0.1-0.2-0.1-0.4-0.2-0.5c-2.5-1.8-3.9-4.1-2.6-7.2c1.3-3.1,3.9-3.6,6.9-3.5
			c5.4,0.1,10.8-0.1,16.2,0.1c1.8,0,2.1-0.5,2.1-2.2c-0.1-7.2,0-14.4,0-21.6c0-5.1,0-5.1-5-5.2c-12.4-0.2-20.8-8.3-20.8-20.4
			c0-66.1-0.1-132.2,0-198.3c0-15.6,12.5-28.1,28.1-28.1c76.9-0.1,153.8-0.1,230.8,0c10.9,0,19.1,5.3,24.6,14.8
			c1.6,2.7,1.9,5.9,3.4,8.7c0,69.3,0,138.6,0,207.9c-0.9,0.4-0.8,1.4-1.1,2.1c-2.1,6-6.2,10-12.2,12.2c-3.4,1.2-7,1.2-10.5,1.1
			c-1.6,0-2,0.4-2,2c0.1,8.3,0.1,16.6,0,24.9c0,1.6,0.5,2,2,2c5.2-0.1,10.5,0.1,15.7-0.1C388.9,382.1,391.7,383,393.5,386.2z
			 M250,158.1c-43.1,0-86.3,0-129.4-0.1c-2.3,0-2.9,0.5-2.9,2.9c0.1,33,0.1,65.9,0.1,98.9c0,24.4,0,48.8,0,73.1c0,5.7,3.2,9,8.9,9.3
			c1.2,0,2.4-0.1,3.6,0c1.6,0.2,2.1-0.3,2-2c-0.1-4.1,0-8.2,0-12.3c0-5.4,1.9-7.3,7.3-7.3c10.6,0,21.3,0,31.9,0
			c6.1,0,7.9,1.7,7.9,7.8c0,17.2,0,34.4,0,51.6c0,1.7,0.3,2.4,2.2,2.3c3.4-0.2,6.9-0.2,10.4,0c2.5,0.2,3.2-0.5,3.2-3.1
			c-0.1-37.7-0.1-75.5-0.1-113.2c0-5.2,2-7.4,6.9-7.4c11.1-0.1,22.2-0.1,33.3,0c4.7,0,6.8,2.2,6.8,6.9c0,5.1,0,10.3,0,15.4
			c0,32.9,0,65.8,0,98.6c0,2.1,0.4,2.9,2.7,2.8c3.4-0.2,6.9-0.2,10.4,0c2.1,0.1,2.8-0.5,2.7-2.7c-0.1-22-0.1-44.1-0.1-66.1
			c0-5.5,1.9-7.4,7.4-7.4c10.6,0,21.1,0,31.7,0c6.3,0,8,1.7,8,7.9c0,21.9,0,43.9,0,65.8c0,1.9,0.3,2.6,2.4,2.5
			c3.4-0.2,6.9-0.2,10.4,0c2.3,0.1,3.1-0.4,3.1-2.9c-0.1-18.5-0.1-37-0.1-55.5c0-1.2-0.1-2.4,0.3-3.6c1.1-3.4,4.8-5,7.9-3.3
			c2.5,1.4,3,3.8,3,6.5c0,18.8,0,37.5-0.1,56.3c0,1.8,0.2,2.6,2.3,2.5c6.7-0.2,13.4-0.1,20.2,0c1.6,0,2.2-0.2,2.2-2.1
			c-0.1-38.9-0.1-77.7,0-116.6c0-2-0.7-2.2-2.4-2.2c-6.5,0.1-13.1,0.1-19.6,0c-2.1,0-2.9,0.4-2.8,2.7c0.2,6.4,0.1,12.9,0,19.3
			c-0.1,4.5-3.5,7.3-7.3,6c-2.9-1-3.9-3.3-3.9-6.1c0-8.4,0-16.8,0-25.2c0-6,1.8-7.8,7.9-7.8c10.5,0,20.9,0,31.4,0
			c6,0,7.8,1.8,7.8,7.9c0,26.7,0,53.4,0,80.1c0,3.9,0,3.9,4,3.9c7.7,0,10.6-2.9,10.6-10.7c0-56.9,0-113.8,0.1-170.6
			c0-2.4-0.6-2.9-2.9-2.8C336.3,158.1,293.1,158.1,250,158.1z M249.9,146.9c42.9,0,85.9,0,128.8,0c0.6,0,1.1-0.1,1.7,0
			c1.4,0.2,1.9-0.3,1.9-1.8c-0.1-3.5,0-7.1-0.1-10.6c0-2.5-0.6-5-1.8-7.3c-3.5-6.6-9.2-9.4-16.5-9.4c-76,0-152,0-228,0
			c-0.4,0-0.7,0-1.1,0c-9.8,0.2-16.8,7.2-17.1,17c-0.1,3,0.1,6-0.1,9c-0.2,2.4,0.4,3.2,3.1,3.2C163.8,146.9,206.9,146.9,249.9,146.9
			z M231,326.2c0-17.9,0-35.9,0-53.8c0-2-0.4-2.7-2.6-2.7c-6.6,0.2-13.3,0.1-19.9,0c-1.5,0-2.3,0.1-2.3,2.1
			c0.1,36.1,0.1,72.3,0,108.4c0,1.6,0.4,2,2,2c6.7-0.1,13.4-0.1,20.2,0c2.1,0,2.6-0.5,2.6-2.6C230.9,361.9,231,344.1,231,326.2z
			 M293.7,350c0-10.1,0-20.2,0-30.3c0-1.8-0.3-2.6-2.4-2.5c-6.7,0.2-13.4,0.1-20.2,0c-2,0-2.2,0.7-2.2,2.4c0.1,20.2,0.1,40.3,0,60.5
			c0,1.9,0.6,2.2,2.4,2.2c6.6-0.1,13.3-0.2,19.9,0c2.2,0.1,2.5-0.7,2.5-2.7C293.7,369.8,293.7,359.9,293.7,350z M168.2,357.3
			c0-7.8,0-15.7,0-23.5c0-1.6-0.4-2-2-2c-6.9,0.1-13.8,0.1-20.7,0c-1.6,0-2,0.4-2,2c0.1,15.5,0.1,31,0,46.5c0,1.6,0.4,2,2,2
			c6.8-0.1,13.6-0.1,20.4,0c1.8,0,2.3-0.5,2.3-2.3C168.1,372.5,168.2,364.9,168.2,357.3z"/>
	</defs>
	<clipPath id="SVGID_00000121977339407232821950000010916121777517731261_">
		<use xlink:href="#SVGID_00000073696876054364302440000005049261323246242447_"  style="overflow:visible;"/>
	</clipPath>
	
		<linearGradient id="SVGID_00000019663021452415740510000002121114472543221427_" gradientUnits="userSpaceOnUse" x1="266.057" y1="425.3112" x2="266.057" y2="-98.0844">
		<stop  offset="0" style="stop-color:#791689"/>
		<stop  offset="1" style="stop-color:#6231FF"/>
	</linearGradient>
	
		<rect x="72.9" y="-122.4" style="clip-path:url(#SVGID_00000121977339407232821950000010916121777517731261_);fill:url(#SVGID_00000019663021452415740510000002121114472543221427_);" width="386.4" height="550"/>
</g>
<g>
	<defs>
		<path id="SVGID_00000063634724262523604570000003578938471590637234_" d="M155.1,284.4c-9.9-0.3-18.3-7.9-19.5-17.1
			c-1.4-11.2,5.8-20.4,15.5-22.6c4.2-1,8.4-0.7,12.3,1.1c1.3,0.6,2.1,0.6,3.1-0.4c10.1-10.2,20.3-20.4,30.5-30.5
			c1.1-1.1,1-1.8,0.4-3.1c-4.3-9.1-1.6-19.5,6.6-25.4c7.7-5.5,18.4-4.6,25.5,2c5.8,5.5,7.8,14.7,4.6,22.2c-0.7,1.7-0.5,2.5,0.7,3.8
			c11.9,11.8,23.7,23.6,35.4,35.5c1.3,1.3,2.4,1.6,4.1,0.9c4.8-1.8,9.7-1.7,14.4,0.4c1.4,0.7,2.2,0.5,3.4-0.6
			c11.4-11.5,22.8-22.9,34.3-34.3c1.1-1.1,1.3-1.9,0.4-3.3c-4.6-8-3.3-17.7,3.1-24.2c6.5-6.6,16.5-7.8,24.7-3
			c7.3,4.2,11.3,13.7,9.2,22c-2.3,8.9-10.2,15.3-19.3,15.4c-1.7,0-3.4-0.1-5-0.7c-2-0.7-3.2-0.3-4.6,1.2
			c-11.5,11.6-23.1,23.2-34.6,34.7c-1.1,1.1-1.5,1.9-0.8,3.6c3.7,8.7,0.9,18.4-6.7,24.2c-7.1,5.3-17.5,5-24.4-0.8
			c-7.3-6-9.5-15.8-5.4-24.2c0.8-1.6,0.5-2.4-0.6-3.5c-11.8-11.7-23.5-23.5-35.3-35.3c-1.1-1.1-2-1.5-3.6-0.8
			c-4.8,2.2-9.8,2.2-14.7,0.3c-1.4-0.5-2.3-0.4-3.4,0.7c-10.2,10.3-20.4,20.5-30.7,30.7c-1.2,1.2-1,2-0.4,3.3
			C179.6,269.9,169.5,284.8,155.1,284.4z M344.1,194c-4.9,0-8.9,4.1-8.9,8.9c0,4.9,4,8.9,8.9,9c5,0,9.1-4.1,9-9.1
			C353,197.9,348.9,193.9,344.1,194z M289.8,269.7c0-4.9-3.9-8.9-8.8-9c-5-0.1-9.2,4-9.1,9c0,4.9,4.1,8.9,8.9,8.9
			C285.7,278.6,289.7,274.6,289.8,269.7z M224.4,202.9c0-4.9-3.9-8.9-8.8-8.9c-5,0-9.1,4.2-9,9.1c0.1,4.9,4.2,8.9,9,8.8
			C220.4,211.8,224.4,207.8,224.4,202.9z M164.4,264.2c0-4.9-3.9-8.9-8.8-8.9c-4.8,0-8.9,4-9,8.8c-0.1,4.9,4,9.1,9.1,9
			C160.5,273.1,164.4,269.2,164.4,264.2z"/>
	</defs>
	<clipPath id="SVGID_00000096760566297801854460000009113741799196779654_">
		<use xlink:href="#SVGID_00000063634724262523604570000003578938471590637234_"  style="overflow:visible;"/>
	</clipPath>
	
		<linearGradient id="SVGID_00000143596795072163947970000011660948832349336477_" gradientUnits="userSpaceOnUse" x1="266.057" y1="425.3112" x2="266.057" y2="-98.0844">
		<stop  offset="0" style="stop-color:#791689"/>
		<stop  offset="1" style="stop-color:#6231FF"/>
	</linearGradient>
	
		<rect x="72.9" y="-122.4" style="clip-path:url(#SVGID_00000096760566297801854460000009113741799196779654_);fill:url(#SVGID_00000143596795072163947970000011660948832349336477_);" width="386.4" height="550"/>
</g>
<g>
	<defs>
		<path id="SVGID_00000035488514682788032300000015910328505151166620_" d="M151.1,188.4c-4.1,0-8.2,0-12.3,0
			c-3.8,0-6.4-2.3-6.4-5.5c0-3.2,2.5-5.6,6.3-5.6c8.5-0.1,17-0.1,25.4,0c3.8,0,6.3,2.4,6.3,5.7c-0.1,3.2-2.6,5.5-6.5,5.5
			C159.7,188.4,155.4,188.4,151.1,188.4z"/>
	</defs>
	<clipPath id="SVGID_00000031904566396411502220000007714697908885826220_">
		<use xlink:href="#SVGID_00000035488514682788032300000015910328505151166620_"  style="overflow:visible;"/>
	</clipPath>
	
		<linearGradient id="SVGID_00000175292203460567739210000006314101835784231830_" gradientUnits="userSpaceOnUse" x1="266.057" y1="425.3112" x2="266.057" y2="-98.0844">
		<stop  offset="0" style="stop-color:#791689"/>
		<stop  offset="1" style="stop-color:#6231FF"/>
	</linearGradient>
	
		<rect x="72.9" y="-122.4" style="clip-path:url(#SVGID_00000031904566396411502220000007714697908885826220_);fill:url(#SVGID_00000175292203460567739210000006314101835784231830_);" width="386.4" height="550"/>
</g>
<g>
	<defs>
		<path id="SVGID_00000060737493515394345880000008540903650635895478_" d="M151.1,215.3c-4.1,0-8.2,0-12.3,0
			c-3.8,0-6.4-2.3-6.4-5.5c-0.1-3.2,2.5-5.6,6.3-5.7c8.5-0.1,17-0.1,25.4,0c3.8,0,6.4,2.4,6.3,5.7c-0.1,3.2-2.6,5.5-6.4,5.5
			C159.7,215.3,155.4,215.3,151.1,215.3z"/>
	</defs>
	<clipPath id="SVGID_00000038400567872633733270000003188769710252546745_">
		<use xlink:href="#SVGID_00000060737493515394345880000008540903650635895478_"  style="overflow:visible;"/>
	</clipPath>
	
		<linearGradient id="SVGID_00000080927215805588055640000013052143720785839763_" gradientUnits="userSpaceOnUse" x1="266.057" y1="425.3112" x2="266.057" y2="-98.0844">
		<stop  offset="0" style="stop-color:#791689"/>
		<stop  offset="1" style="stop-color:#6231FF"/>
	</linearGradient>
	
		<rect x="72.9" y="-122.4" style="clip-path:url(#SVGID_00000038400567872633733270000003188769710252546745_);fill:url(#SVGID_00000080927215805588055640000013052143720785839763_);" width="386.4" height="550"/>
</g>
<g>
	<defs>
		<path id="SVGID_00000071552088930286252620000009249808573587549620_" d="M326.1,298.7c3,0,5.6,2.4,5.7,5.3c0.1,3-2.6,5.7-5.6,5.7
			c-2.9,0-5.5-2.6-5.5-5.5C320.6,301.2,323.1,298.7,326.1,298.7z"/>
	</defs>
	<clipPath id="SVGID_00000000924905860034332700000014436998246521864890_">
		<use xlink:href="#SVGID_00000071552088930286252620000009249808573587549620_"  style="overflow:visible;"/>
	</clipPath>
	
		<linearGradient id="SVGID_00000004515823986620656120000005065398927341765044_" gradientUnits="userSpaceOnUse" x1="266.057" y1="425.3112" x2="266.057" y2="-98.0844">
		<stop  offset="0" style="stop-color:#791689"/>
		<stop  offset="1" style="stop-color:#6231FF"/>
	</linearGradient>
	
		<rect x="72.9" y="-122.4" style="clip-path:url(#SVGID_00000000924905860034332700000014436998246521864890_);fill:url(#SVGID_00000004515823986620656120000005065398927341765044_);" width="386.4" height="550"/>
</g>
<g>
	<defs>
		<path id="SVGID_00000058565712301332205540000004819655682567269555_" d="M185.6,188.3c-2.9,0-5.5-2.7-5.5-5.6
			c0-3,2.8-5.7,5.8-5.6c3,0.1,5.4,2.7,5.3,5.7C191.2,185.9,188.6,188.4,185.6,188.3z"/>
	</defs>
	<clipPath id="SVGID_00000127754343677981965790000005467998268325848730_">
		<use xlink:href="#SVGID_00000058565712301332205540000004819655682567269555_"  style="overflow:visible;"/>
	</clipPath>
	
		<linearGradient id="SVGID_00000181084400295289984310000011790426255998562453_" gradientUnits="userSpaceOnUse" x1="266.057" y1="425.3112" x2="266.057" y2="-98.0844">
		<stop  offset="0" style="stop-color:#791689"/>
		<stop  offset="1" style="stop-color:#6231FF"/>
	</linearGradient>
	
		<rect x="72.9" y="-122.4" style="clip-path:url(#SVGID_00000127754343677981965790000005467998268325848730_);fill:url(#SVGID_00000181084400295289984310000011790426255998562453_);" width="386.4" height="550"/>
</g>
<g>
	<defs>
		<path id="SVGID_00000058568545740881888270000002442495327000757138_" d="M294.6,126.7c20.3,0,40.5,0,60.8,0c0.9,0,1.9,0,2.8,0.1
			c2.9,0.4,5,2.8,5,5.5c0,2.7-2.1,5.1-5,5.5c-0.9,0.1-1.9,0.1-2.8,0.1c-40.7,0-81.4,0-122.1,0c-0.1,0-0.2,0-0.3,0
			c-4.8,0-7.5-2-7.5-5.6c0-3.5,2.7-5.6,7.5-5.6C253.5,126.7,274,126.7,294.6,126.7z"/>
	</defs>
	<clipPath id="SVGID_00000136371793908272712960000010136664833384960666_">
		<use xlink:href="#SVGID_00000058568545740881888270000002442495327000757138_"  style="overflow:visible;"/>
	</clipPath>
	
		<linearGradient id="SVGID_00000021835306300248503380000010742708227619733676_" gradientUnits="userSpaceOnUse" x1="266.057" y1="425.3112" x2="266.057" y2="-98.0844">
		<stop  offset="0" style="stop-color:#791689"/>
		<stop  offset="1" style="stop-color:#6231FF"/>
	</linearGradient>
	
		<rect x="72.9" y="-122.4" style="clip-path:url(#SVGID_00000136371793908272712960000010136664833384960666_);fill:url(#SVGID_00000021835306300248503380000010742708227619733676_);" width="386.4" height="550"/>
</g>
<g>
	<defs>
		<path id="SVGID_00000031924316115341731180000015355369190411156404_" d="M148,132.3c0,2.9-2.6,5.5-5.5,5.6
			c-3,0.1-5.7-2.7-5.7-5.7c0.1-2.9,2.7-5.5,5.6-5.5C145.3,126.8,148,129.4,148,132.3z"/>
	</defs>
	<clipPath id="SVGID_00000112628158052610177010000009484298830299234445_">
		<use xlink:href="#SVGID_00000031924316115341731180000015355369190411156404_"  style="overflow:visible;"/>
	</clipPath>
	
		<linearGradient id="SVGID_00000023273830854418802610000003021931960327423419_" gradientUnits="userSpaceOnUse" x1="266.057" y1="425.3112" x2="266.057" y2="-98.0844">
		<stop  offset="0" style="stop-color:#791689"/>
		<stop  offset="1" style="stop-color:#6231FF"/>
	</linearGradient>
	
		<rect x="72.9" y="-122.4" style="clip-path:url(#SVGID_00000112628158052610177010000009484298830299234445_);fill:url(#SVGID_00000023273830854418802610000003021931960327423419_);" width="386.4" height="550"/>
</g>
<g>
	<defs>
		<path id="SVGID_00000067933247919060024890000003899550747403374512_" d="M164.9,137.9c-2.9,0.1-5.6-2.5-5.7-5.4
			c-0.1-3,2.6-5.8,5.6-5.7c2.9,0,5.5,2.7,5.5,5.6C170.4,135.2,167.8,137.8,164.9,137.9z"/>
	</defs>
	<clipPath id="SVGID_00000180359063557304711530000000849589315780153767_">
		<use xlink:href="#SVGID_00000067933247919060024890000003899550747403374512_"  style="overflow:visible;"/>
	</clipPath>
	
		<linearGradient id="SVGID_00000128475957285208303020000013920330242806206891_" gradientUnits="userSpaceOnUse" x1="266.057" y1="425.3112" x2="266.057" y2="-98.0844">
		<stop  offset="0" style="stop-color:#791689"/>
		<stop  offset="1" style="stop-color:#6231FF"/>
	</linearGradient>
	
		<rect x="72.9" y="-122.4" style="clip-path:url(#SVGID_00000180359063557304711530000000849589315780153767_);fill:url(#SVGID_00000128475957285208303020000013920330242806206891_);" width="386.4" height="550"/>
</g>
<g>
	<defs>
		<path id="SVGID_00000178194530406398646120000003771249028728820096_" d="M187.3,126.7c2.9,0,5.5,2.7,5.5,5.6c0,3-2.8,5.7-5.8,5.6
			c-2.9-0.1-5.4-2.9-5.4-5.7C181.8,129.3,184.4,126.7,187.3,126.7z"/>
	</defs>
	<clipPath id="SVGID_00000066493676238108953860000013143268219266728848_">
		<use xlink:href="#SVGID_00000178194530406398646120000003771249028728820096_"  style="overflow:visible;"/>
	</clipPath>
	
		<linearGradient id="SVGID_00000118399173698806480900000008384008178189372858_" gradientUnits="userSpaceOnUse" x1="266.057" y1="425.3112" x2="266.057" y2="-98.0844">
		<stop  offset="0" style="stop-color:#791689"/>
		<stop  offset="1" style="stop-color:#6231FF"/>
	</linearGradient>
	
		<rect x="72.9" y="-122.4" style="clip-path:url(#SVGID_00000066493676238108953860000013143268219266728848_);fill:url(#SVGID_00000118399173698806480900000008384008178189372858_);" width="386.4" height="550"/>
</g>
</svg>
