<?xml version="1.0" encoding="utf-8"?>
<!-- Generator: Adobe Illustrator 26.5.0, SVG Export Plug-In . SVG Version: 6.00 Build 0)  -->
<svg version="1.1" id="Camada_1" xmlns="http://www.w3.org/2000/svg" xmlns:xlink="http://www.w3.org/1999/xlink" x="0px" y="0px"
	 viewBox="0 0 500 500" style="enable-background:new 0 0 500 500;" xml:space="preserve">
<style type="text/css">
	.st0{clip-path:url(#SVGID_00000006677716255065178630000015664182580966548140_);}
	.st1{fill:url(#SVGID_00000030470125415080092170000005334653526905012616_);}
	.st2{clip-path:url(#SVGID_00000141439715144366850350000000940341842466474386_);}
	.st3{fill:url(#SVGID_00000129205549355029522670000005352677089305882002_);}
	.st4{clip-path:url(#SVGID_00000106853165444792747360000005269868585235273359_);}
	.st5{fill:url(#SVGID_00000070078035262712257230000004939103345829577621_);}
	.st6{clip-path:url(#SVGID_00000069386501200184854510000011379101530504326048_);}
	.st7{fill:url(#SVGID_00000142167370855092534220000003221645226079385477_);}
	.st8{clip-path:url(#SVGID_00000059279025468861070350000010290176006121881239_);}
	.st9{fill:url(#SVGID_00000155104741256890717510000010559414454781538968_);}
	.st10{clip-path:url(#SVGID_00000011715424113562022750000015940862480112312209_);}
	.st11{fill:url(#SVGID_00000052065580539134154390000005255735971446870169_);}
	.st12{clip-path:url(#SVGID_00000140725478798196917640000005785478203085517217_);}
	.st13{fill:url(#SVGID_00000021118797071011775660000010474887340865791407_);}
	.st14{clip-path:url(#SVGID_00000018200696251605753770000013229980251210396571_);}
	.st15{fill:url(#SVGID_00000047779758321378195620000014067028101067939256_);}
	.st16{clip-path:url(#SVGID_00000096745535381153139700000006162762014635629980_);}
	.st17{fill:url(#SVGID_00000080164448230600220910000017852724747415977101_);}
	.st18{clip-path:url(#SVGID_00000158728958479205158530000015351876946401814942_);}
	.st19{fill:url(#SVGID_00000145755670063121009990000000544451133680869031_);}
	.st20{clip-path:url(#SVGID_00000055668790932380416650000008472094103524711582_);}
	.st21{fill:url(#SVGID_00000044170547089725488230000001784226409130139572_);}
	.st22{clip-path:url(#SVGID_00000021803284790153475730000007711295728226980281_);}
	.st23{fill:url(#SVGID_00000111189411921149502120000006355146399991076739_);}
	.st24{clip-path:url(#SVGID_00000055665383918988960300000015199968912325087931_);}
	.st25{fill:url(#SVGID_00000049219683417941017630000006455057945011561151_);}
	.st26{clip-path:url(#SVGID_00000047746857503871077680000006558798561505978300_);}
	.st27{fill:url(#SVGID_00000147189476104339158000000006417140049450618757_);}
	.st28{clip-path:url(#SVGID_00000009554844307514993980000010267431779083471545_);}
	.st29{fill:url(#SVGID_00000015356733031245673590000010707225972873519529_);}
	.st30{clip-path:url(#SVGID_00000009556373724206365330000012212855331051633313_);}
	.st31{fill:url(#SVGID_00000132089306633981260180000016403661530423699865_);}
	.st32{clip-path:url(#SVGID_00000060737880307224518220000007514628515487342731_);}
	.st33{fill:url(#SVGID_00000071551549299771666320000011128007097257639086_);}
	.st34{clip-path:url(#SVGID_00000155106587419205287800000014858907579370462101_);}
	.st35{fill:url(#SVGID_00000155849592692953353510000011013070134004541835_);}
	
		.st36{clip-path:url(#SVGID_00000170277975445837334670000012325619773329815693_);fill:url(#SVGID_00000044165870658968103630000005302524071993653683_);}
	
		.st37{clip-path:url(#SVGID_00000094617364427198589970000004199063684713925008_);fill:url(#SVGID_00000000906544842839103810000003870484608890286740_);}
	
		.st38{clip-path:url(#SVGID_00000085934028017811205600000004664918651781741990_);fill:url(#SVGID_00000082341229757454587190000004637075659907882394_);}
	.st39{clip-path:url(#SVGID_00000011030469286219559580000013912528647349777796_);}
	.st40{fill:url(#SVGID_00000162343824935586891760000015148702580441119125_);}
	.st41{clip-path:url(#SVGID_00000128472357226896573710000010549831654608122756_);}
	.st42{fill:url(#SVGID_00000026842874476899346180000015327196013086702766_);}
	.st43{clip-path:url(#SVGID_00000023272521037845205890000007072940380735899553_);}
	.st44{fill:url(#SVGID_00000056416149797586311960000004010515621130718109_);}
	.st45{clip-path:url(#SVGID_00000008847375160746404630000009355225102132200320_);}
	.st46{fill:url(#SVGID_00000170274328348286486220000012916022741212610442_);}
	.st47{clip-path:url(#SVGID_00000004521420266521950350000008180052344977918892_);}
	.st48{fill:url(#SVGID_00000029749134497073301500000012814248584529823129_);}
	
		.st49{clip-path:url(#SVGID_00000158712666566799570270000005049421466251489711_);fill:url(#SVGID_00000039101098607459360170000013574610812051296172_);}
	
		.st50{clip-path:url(#SVGID_00000036240865524807569750000010191943663097155211_);fill:url(#SVGID_00000095318592434446557070000011967841181010700469_);}
	
		.st51{clip-path:url(#SVGID_00000113323845710852550090000008575417222368186023_);fill:url(#SVGID_00000104703441008162322760000017366246474849542299_);}
	
		.st52{clip-path:url(#SVGID_00000103253370502670462450000016429872024160343431_);fill:url(#SVGID_00000050650023263342728710000015262360474459381143_);}
	
		.st53{clip-path:url(#SVGID_00000021113495025380867190000013563960047269455274_);fill:url(#SVGID_00000152242591749036139800000007027588133312564618_);}
	
		.st54{clip-path:url(#SVGID_00000124124253978554189900000001416583746333503414_);fill:url(#SVGID_00000005246329440185029940000005805980095367392911_);}
	
		.st55{clip-path:url(#SVGID_00000079476821213037385480000001358606114515371454_);fill:url(#SVGID_00000025435903156377076560000013866851181629664419_);}
	
		.st56{clip-path:url(#SVGID_00000172437028859026562760000010880538031773299375_);fill:url(#SVGID_00000050658732259550985010000006670369696817728927_);}
	
		.st57{clip-path:url(#SVGID_00000012451635988480613220000000546650120977154480_);fill:url(#SVGID_00000032607227900457238480000006175229562306384298_);}
	
		.st58{clip-path:url(#SVGID_00000020364154667383716060000012830760562676185753_);fill:url(#SVGID_00000066497830461801824070000013002023337011060134_);}
	
		.st59{clip-path:url(#SVGID_00000001643663439300056660000000688946826931396518_);fill:url(#SVGID_00000175284429570651644980000003058075167819814836_);}
	
		.st60{clip-path:url(#SVGID_00000172416676858465554540000011582566905167113913_);fill:url(#SVGID_00000054966017636187448830000014904627624490112647_);}
	.st61{clip-path:url(#SVGID_00000137835724910261641600000007258179171837661367_);}
	.st62{fill:url(#SVGID_00000073713986922673624470000004898438687482617517_);}
	.st63{clip-path:url(#SVGID_00000127014121351296488200000009336337563366235040_);}
	.st64{fill:url(#SVGID_00000012432297466811922690000002811655087799230121_);}
	.st65{clip-path:url(#SVGID_00000107555493563396970930000016710333297026060721_);}
	.st66{fill:url(#SVGID_00000149364906914244067230000012553473023159891630_);}
	.st67{clip-path:url(#SVGID_00000020378368343610032190000002018969089049154719_);}
	.st68{fill:url(#SVGID_00000129187729028508440300000006771548371656270490_);}
	.st69{clip-path:url(#SVGID_00000181807567035901600240000005248397236112878764_);}
	.st70{fill:url(#SVGID_00000044178503044855199030000003634870019520898443_);}
	.st71{clip-path:url(#SVGID_00000052794670245941913390000010048375952609238697_);}
	.st72{fill:url(#SVGID_00000028304375314869043770000001008074989824236445_);}
	.st73{clip-path:url(#SVGID_00000052087659994410089970000015922116224885290911_);}
	.st74{fill:url(#SVGID_00000058590559151660686380000010478209132132534423_);}
	.st75{clip-path:url(#SVGID_00000030455321341532750110000002713605949818038186_);}
	.st76{fill:url(#SVGID_00000102512429759326910370000015731751751363957636_);}
	.st77{clip-path:url(#SVGID_00000021098261211562653260000016146952520384360108_);}
	.st78{fill:url(#SVGID_00000037673535600923445600000012262866676188244920_);}
	.st79{clip-path:url(#SVGID_00000106128896563998216900000014512465259181764763_);}
	.st80{fill:url(#SVGID_00000006686074448931084610000004201837761870471841_);}
</style>
<g>
	<defs>
		<path id="SVGID_00000121263381716688727390000017696070865299906980_" d="M114.7,352.6c0.9-1.3,0.8-3,1.2-4.4
			c3.9-13.1,12.2-21.9,25.2-26.3c0.6-0.2,1.1-0.4,1.7-0.6c-9.8-12.3-7.6-31.8,3.5-40.7c10.1-8.2,24.8-8,34.7,0.5
			c10.5,8.9,12.6,28.1,2.9,40.3c9.7,2.8,17.3,8.4,22.8,17.2c5.5-8.6,13-14.4,23-17.2c-6.5-8-7.5-17.1-5.5-26.7
			c1.3-6.2,4.8-11.1,9.9-14.8c10.5-7.8,24.5-6.8,34.2,1.8c9.7,8.7,12,27.5,2.4,39.6c14.2,6.5,14.5,6.7,22.8,17.2
			c5.4-8.5,12.9-14.3,22.9-17.1c-6.3-7.5-7.4-16.1-5.9-25.2c1.1-6.5,4.5-11.8,9.7-15.9c10.1-8,24.3-7.5,34.1,0.7
			c10.3,8.6,13,27.9,3,40.4c6.3,1.8,11.9,4.8,16.6,9.4c5.9,5.8,9.6,12.7,11,20.9c0.1,0.4-0.1,0.9,0.5,1c0,9.5,0,19,0,28.6
			c-0.7,2.1-2.1,3.5-4.2,4.2c-87.4,0-174.8,0-262.2,0c-2.1-0.7-3.5-2.1-4.2-4.2C114.7,371.6,114.7,362.1,114.7,352.6z M163.3,374.8
			c12,0,23.9,0,35.9,0c1.6,0,2.3-0.3,2.2-2.1c-0.1-5.3,0-10.6-0.1-15.8c-0.4-13.8-11.2-25.3-24.9-26c-8.3-0.4-16.6-0.5-24.8-0.1
			c-14,0.6-24.2,9.9-26,23.7c-0.8,6-0.2,12.1-0.4,18.2c-0.1,1.8,0.5,2.1,2.2,2.1C139.3,374.8,151.3,374.8,163.3,374.8z M249.8,374.8
			c12.1,0,24.1,0,36.2,0c1.5,0,2.1-0.2,2.1-2c-0.1-5.4,0.1-10.7-0.1-16.1c-0.4-13.6-11.3-25-24.8-25.9c-8.3-0.5-16.7-0.5-25.1-0.1
			c-14,0.7-24.2,10-25.9,23.9c-0.7,5.9-0.1,12-0.3,17.9c-0.1,1.9,0.5,2.3,2.3,2.3C226.1,374.7,238,374.8,249.8,374.8z M336.6,374.8
			c12.1,0,24.1,0,36.2,0c1.3,0,2-0.1,2-1.8c-0.1-5.5,0.1-10.9-0.1-16.4c-0.4-13.6-11.3-25-24.9-25.8c-8.3-0.5-16.7-0.5-25.1-0.1
			c-13.9,0.7-24.2,10.1-25.9,23.9c-0.7,5.8-0.1,11.8-0.3,17.7c-0.1,1.9,0.3,2.5,2.4,2.5C312.9,374.7,324.7,374.8,336.6,374.8z
			 M179.4,302.4c0-8-3.8-13.9-10.4-16.5c-6.4-2.4-13.4-0.6-18,4.6c-3.8,4.4-4.3,9.7-3.8,15.1c0.6,5.7,3.5,9.9,8.5,12.5
			C166.3,323.7,180,316.4,179.4,302.4z M266.2,301.9c0-9.4-6.4-16.7-15.4-17c-6.9-0.3-13,3.7-15.6,10c-2.9,7.1-1.2,16.1,4,20.8
			c5.1,4.6,11.1,5.7,17.4,2.9C263.3,315.6,266.3,309.9,266.2,301.9z M320.5,302.2c-0.1,7.7,2.9,13.4,9.8,16.5
			c7.4,3.4,16.2,0.3,20.3-6.8c4.4-7.7,2.4-18.9-4.4-23.9c-5.2-3.8-10.9-4.3-16.7-1.4C323.2,289.8,320.4,295.3,320.5,302.2z"/>
	</defs>
	<clipPath id="SVGID_00000110434241829314388570000016557459499884671617_">
		<use xlink:href="#SVGID_00000121263381716688727390000017696070865299906980_"  style="overflow:visible;"/>
	</clipPath>
	<g style="clip-path:url(#SVGID_00000110434241829314388570000016557459499884671617_);">
		
			<linearGradient id="SVGID_00000038407390323605831950000017779388973857278106_" gradientUnits="userSpaceOnUse" x1="266.057" y1="425.3112" x2="266.057" y2="-98.0844">
			<stop  offset="0" style="stop-color:#791689"/>
			<stop  offset="1" style="stop-color:#6231FF"/>
		</linearGradient>
		
			<rect x="72.9" y="-122.4" style="fill:url(#SVGID_00000038407390323605831950000017779388973857278106_);" width="386.4" height="550"/>
	</g>
</g>
<g>
	<defs>
		<path id="SVGID_00000097459131375494461580000009772507327308700351_" d="M319.8,114.6c3,0.7,6.1,1.2,9,2.1
			c22.4,6.9,36.7,21.7,41.1,44.7c4.5,23.8-4.1,43.2-23.4,57.8c-1.3,1-1.9,1.9-1.9,3.6c0.1,8.6,0,17.3,0.1,25.9
			c0,2.7-0.6,4.9-3.2,6.1c-2.5,1.1-4.5,0.1-6.5-1.5c-8.9-7.4-17.9-14.8-26.9-22.2c-1.1-0.9-2.3-1.5-3.8-1.4
			c-10.3,0.1-20.6,0.1-30.9,0c-1.6,0-2.5,0.5-3.4,1.8c-4.6,6.5-9.5,12.9-13.9,19.6c-3.3,5-7.5,6-11.8,0.2
			c-5-6.7-10.4-13.1-15.6-19.7c-1.1-1.4-2.2-1.9-4-1.9c-9.4,0.1-18.9,0.1-28.3,0c-1.6,0-2.8,0.3-4.1,1.4c-9,7.5-18.1,14.8-27.2,22.3
			c-2,1.6-4,2.6-6.5,1.5c-2.6-1.2-3.2-3.5-3.2-6.1c0.1-8.6,0-17.3,0.1-25.9c0-1.4-0.3-2.4-1.6-3.2c-20-14-29-37.7-23.3-61.2
			c5.4-22.6,24.5-39.7,48.1-43.2c0.4-0.1,0.9,0.1,1-0.5C226.4,114.6,273.1,114.6,319.8,114.6z M249.7,241.1c0.9-0.4,1.3-1.3,1.8-2
			c4.1-5.6,8.2-11.2,12.2-16.9c1.5-2.1,3.3-3,5.8-3c12.6,0,25.2,0,37.8,0c1.9,0,3.6,0.6,5.1,1.8c6.6,5.5,13.3,11,20,16.4
			c0.5,0.4,0.8,1.2,1.8,0.8c0-6,0.2-12-0.1-18c-0.2-3.9,1.2-6.3,4.5-8.4c16.3-10.1,24.9-29.9,21.2-48.2c-4.7-23-23.5-38.4-47-38.4
			c-41.8,0-83.5,0-125.3,0c-2.4,0-4.7,0.1-7.1,0.4c-28.2,3.5-47.1,32.3-38.9,59.5c3.5,11.7,10.4,20.8,20.9,27.2
			c2.7,1.6,4.1,3.7,3.8,6.9c-0.2,2.6,0,5.3,0,7.9c0,3.7,0,7.5,0,11.6c1.1-0.8,1.8-1.3,2.5-1.9c6.3-5.1,12.6-10.2,18.8-15.4
			c1.9-1.6,4-2.4,6.5-2.3c11.3,0.1,22.6,0.1,33.8,0c3.2,0,5.5,1,7.4,3.6C239.8,228.9,244.8,235,249.7,241.1z"/>
	</defs>
	<clipPath id="SVGID_00000023984330062114443720000016174955539219126163_">
		<use xlink:href="#SVGID_00000097459131375494461580000009772507327308700351_"  style="overflow:visible;"/>
	</clipPath>
	<g style="clip-path:url(#SVGID_00000023984330062114443720000016174955539219126163_);">
		
			<linearGradient id="SVGID_00000155826772296884994840000009779901679308555451_" gradientUnits="userSpaceOnUse" x1="266.057" y1="425.3112" x2="266.057" y2="-98.0844">
			<stop  offset="0" style="stop-color:#791689"/>
			<stop  offset="1" style="stop-color:#6231FF"/>
		</linearGradient>
		
			<rect x="72.9" y="-122.4" style="fill:url(#SVGID_00000155826772296884994840000009779901679308555451_);" width="386.4" height="550"/>
	</g>
</g>
<g>
	<defs>
		<path id="SVGID_00000089536653016957569070000001928645727629233802_" d="M280.8,165.1c0.1,3.9-1.2,7.5-3.3,10.7
			c-6.3,10-15.3,17.2-24.7,23.8c-1.8,1.3-3.9,1.1-5.7-0.2c-8.4-6-16.4-12.5-22.6-20.9c-7.3-10-6.7-21,1.4-29
			c6.1-6.1,14.9-7.3,22.6-3.3c1,0.5,1.7,0.9,2.9,0.2C265.5,138.7,280.8,149.9,280.8,165.1z M270.2,165c-0.3-4.3-1.9-7.9-6-9.7
			c-3.8-1.7-7.1-0.6-10,2.3c-2.8,2.8-5.3,2.6-8.5-0.3c-4.7-4.4-11.1-3.4-14.2,2.2c-2.1,3.8-2,7.5,0.4,11.2
			c4.6,6.9,10.9,12.2,17.3,17.3c0.6,0.5,1.1,0.6,1.8,0.1c6.5-5.2,12.8-10.5,17.4-17.5C269.4,168.9,270.3,167.1,270.2,165z"/>
	</defs>
	<clipPath id="SVGID_00000116952111451525540140000006851852587477067671_">
		<use xlink:href="#SVGID_00000089536653016957569070000001928645727629233802_"  style="overflow:visible;"/>
	</clipPath>
	<g style="clip-path:url(#SVGID_00000116952111451525540140000006851852587477067671_);">
		
			<linearGradient id="SVGID_00000121244356630173572650000010155510456262270365_" gradientUnits="userSpaceOnUse" x1="266.057" y1="425.3112" x2="266.057" y2="-98.0844">
			<stop  offset="0" style="stop-color:#791689"/>
			<stop  offset="1" style="stop-color:#6231FF"/>
		</linearGradient>
		
			<rect x="72.9" y="-122.4" style="fill:url(#SVGID_00000121244356630173572650000010155510456262270365_);" width="386.4" height="550"/>
	</g>
</g>
<g>
	<defs>
		<path id="SVGID_00000142862069890857938680000003929110380903478452_" d="M350,171.9c-0.2,9.9-3.4,18.3-10,25.3
			c-2.8,3-5.9,3.4-8.3,1.2c-2.5-2.2-2.3-5.3,0.4-8.3c10.1-11.2,9.7-26-1-36.9c-2.4-2.4-3-4.8-1.6-7.1c1.3-2.2,3.3-3,5.9-2.5
			c1.3,0.2,2.2,1.1,3.1,1.9C345.9,152.8,349.7,161.7,350,171.9z"/>
	</defs>
	<clipPath id="SVGID_00000026841458634287114410000009923504182209280419_">
		<use xlink:href="#SVGID_00000142862069890857938680000003929110380903478452_"  style="overflow:visible;"/>
	</clipPath>
	<g style="clip-path:url(#SVGID_00000026841458634287114410000009923504182209280419_);">
		
			<linearGradient id="SVGID_00000114040793733275289290000008031105463530526133_" gradientUnits="userSpaceOnUse" x1="266.057" y1="425.3112" x2="266.057" y2="-98.0844">
			<stop  offset="0" style="stop-color:#791689"/>
			<stop  offset="1" style="stop-color:#6231FF"/>
		</linearGradient>
		
			<rect x="72.9" y="-122.4" style="fill:url(#SVGID_00000114040793733275289290000008031105463530526133_);" width="386.4" height="550"/>
	</g>
</g>
<g>
	<defs>
		<path id="SVGID_00000048471729240786387510000007492018284764380057_" d="M319,141c0,3-2.4,5.4-5.4,5.4c-2.9,0-5.4-2.5-5.4-5.3
			c0-2.8,2.4-5.1,5.3-5.2C316.5,135.7,319,138.1,319,141z"/>
	</defs>
	<clipPath id="SVGID_00000124154482717816295570000010075259715661202823_">
		<use xlink:href="#SVGID_00000048471729240786387510000007492018284764380057_"  style="overflow:visible;"/>
	</clipPath>
	<g style="clip-path:url(#SVGID_00000124154482717816295570000010075259715661202823_);">
		
			<linearGradient id="SVGID_00000110457387871343009890000010431595330466974592_" gradientUnits="userSpaceOnUse" x1="266.057" y1="425.3112" x2="266.057" y2="-98.0844">
			<stop  offset="0" style="stop-color:#791689"/>
			<stop  offset="1" style="stop-color:#6231FF"/>
		</linearGradient>
		
			<rect x="72.9" y="-122.4" style="fill:url(#SVGID_00000110457387871343009890000010431595330466974592_);" width="386.4" height="550"/>
	</g>
</g>
</svg>
