<?xml version="1.0" encoding="utf-8"?>
<!-- Generator: Adobe Illustrator 26.5.0, SVG Export Plug-In . SVG Version: 6.00 Build 0)  -->
<svg version="1.1" id="Camada_1" xmlns="http://www.w3.org/2000/svg" xmlns:xlink="http://www.w3.org/1999/xlink" x="0px" y="0px"
	 viewBox="0 0 500 500" style="enable-background:new 0 0 500 500;" xml:space="preserve">
<style type="text/css">
	.st0{clip-path:url(#SVGID_00000021837718225458075840000001789448245585222821_);}
	.st1{fill:url(#SVGID_00000101086913222873111260000006508289332255389855_);}
	.st2{clip-path:url(#SVGID_00000042003589473221892510000008334522882287952792_);}
	.st3{fill:url(#SVGID_00000142154755037243562590000013452711105295338687_);}
	.st4{clip-path:url(#SVGID_00000095296731741440822350000009713232903056550831_);}
	.st5{fill:url(#SVGID_00000067940864036445956620000003951406666979746717_);}
	.st6{clip-path:url(#SVGID_00000012443621418794123710000007574607326982083229_);}
	.st7{fill:url(#SVGID_00000121959703839663890770000008280390159421296806_);}
	.st8{clip-path:url(#SVGID_00000131350594993862963240000010759228839266907020_);}
	.st9{fill:url(#SVGID_00000162322320704071771120000000998572946888479664_);}
	.st10{clip-path:url(#SVGID_00000151544072217622050200000012076597852705045166_);}
	.st11{fill:url(#SVGID_00000041293215031400017300000016853687764957546145_);}
	.st12{clip-path:url(#SVGID_00000083803883351629967930000011369620651047950733_);}
	.st13{fill:url(#SVGID_00000182526279424304985500000016300570755068195774_);}
	.st14{clip-path:url(#SVGID_00000038386974275270347450000005997963797078637235_);}
	.st15{fill:url(#SVGID_00000136390283629561693020000006800248284552543145_);}
	.st16{clip-path:url(#SVGID_00000046318027075229695730000005201141536030672289_);}
	.st17{fill:url(#SVGID_00000049193470604636198860000009082458382081299643_);}
	.st18{clip-path:url(#SVGID_00000109741730902602067720000016104047532213319606_);}
	.st19{fill:url(#SVGID_00000050646678402801706090000015763263780339275395_);}
	.st20{clip-path:url(#SVGID_00000042735195254879193670000005399290358861779622_);}
	.st21{fill:url(#SVGID_00000092438113452391320770000015934113164957220534_);}
	.st22{clip-path:url(#SVGID_00000072991806744028497880000013393378026739873179_);}
	.st23{fill:url(#SVGID_00000119084532335708387910000009737391173373728184_);}
	.st24{clip-path:url(#SVGID_00000077294150015778791260000012197116545430106755_);}
	.st25{fill:url(#SVGID_00000126288016787630583670000010419741739912060555_);}
	.st26{clip-path:url(#SVGID_00000114764383445193025590000018398674831763398284_);}
	.st27{fill:url(#SVGID_00000021078496610472311160000012260153898747055513_);}
	.st28{clip-path:url(#SVGID_00000159441608133781040450000008894427725749727931_);}
	.st29{fill:url(#SVGID_00000000204885001589283820000009431473563133632953_);}
	.st30{clip-path:url(#SVGID_00000039126201888240206230000013244077466567185567_);}
	.st31{fill:url(#SVGID_00000104698944006746301240000013498739807594068887_);}
	.st32{clip-path:url(#SVGID_00000179637304182983202300000017138577139958032518_);}
	.st33{fill:url(#SVGID_00000126296252852728104410000006930692148888750467_);}
	.st34{clip-path:url(#SVGID_00000061466918635238385600000001438829329873257388_);}
	.st35{fill:url(#SVGID_00000078765084292921083310000013965028722530520961_);}
	
		.st36{clip-path:url(#SVGID_00000041288451480929444690000011729924838770879630_);fill:url(#SVGID_00000151505047091417473230000014206867345888401840_);}
	
		.st37{clip-path:url(#SVGID_00000128474764007201317020000014346233507464084118_);fill:url(#SVGID_00000057126766464525278100000006923625985974402464_);}
	
		.st38{clip-path:url(#SVGID_00000027577528198054229000000016516091974103841928_);fill:url(#SVGID_00000073717050416372854740000008111262036314554275_);}
	.st39{clip-path:url(#SVGID_00000140709718214127213810000015735609019383966389_);}
	.st40{fill:url(#SVGID_00000127043859505710673690000014390556352726856894_);}
	.st41{clip-path:url(#SVGID_00000008142557226640506090000012135602484336104100_);}
	.st42{fill:url(#SVGID_00000133516538058907896540000015590131172463301549_);}
	.st43{clip-path:url(#SVGID_00000083775631430652991560000012210203211918803336_);}
	.st44{fill:url(#SVGID_00000068675511161618604810000008910632102896783490_);}
	.st45{clip-path:url(#SVGID_00000069361038592030491290000017170952729177281725_);}
	.st46{fill:url(#SVGID_00000174563680972906558550000009151288228368560278_);}
	.st47{clip-path:url(#SVGID_00000132768652871156107750000006698563906663456660_);}
	.st48{fill:url(#SVGID_00000086677388916789009190000008977804910946971582_);}
	
		.st49{clip-path:url(#SVGID_00000124862870516342765630000017776787045453278597_);fill:url(#SVGID_00000152972704251053752000000015949802940287444373_);}
	
		.st50{clip-path:url(#SVGID_00000074434339231223180460000005661085496048316592_);fill:url(#SVGID_00000054240034846773698120000014539453662976447117_);}
	
		.st51{clip-path:url(#SVGID_00000083080527128716182230000006010767789239496359_);fill:url(#SVGID_00000155867602722893306980000008910731498641305496_);}
	
		.st52{clip-path:url(#SVGID_00000031910157271397340400000012074805543759941263_);fill:url(#SVGID_00000158031127673539012000000017271778031481801611_);}
	
		.st53{clip-path:url(#SVGID_00000029731505812424368140000012380562933872036259_);fill:url(#SVGID_00000086674219480343551930000014436637394361159556_);}
	
		.st54{clip-path:url(#SVGID_00000020380938158497758850000003696172160374941876_);fill:url(#SVGID_00000020358779025137702890000009736649096632898198_);}
	
		.st55{clip-path:url(#SVGID_00000169521788639043455730000009268103682114342790_);fill:url(#SVGID_00000173845458013319456540000000186761564788251526_);}
	
		.st56{clip-path:url(#SVGID_00000052820177651877122810000013963640120814133171_);fill:url(#SVGID_00000079450289716135937150000001176295195139654288_);}
	
		.st57{clip-path:url(#SVGID_00000171708294952835007890000009254985845520194738_);fill:url(#SVGID_00000061454409628750979390000012167777922127135640_);}
	
		.st58{clip-path:url(#SVGID_00000131349784440327721140000009680539671285834934_);fill:url(#SVGID_00000129167759266300456310000010192790936195894426_);}
	
		.st59{clip-path:url(#SVGID_00000051383363204170051070000001846168314797003664_);fill:url(#SVGID_00000025431281647956406120000006688159517314205826_);}
	
		.st60{clip-path:url(#SVGID_00000011010898212760447940000005824862102897567165_);fill:url(#SVGID_00000173162809456941564620000017473729213106149818_);}
	.st61{clip-path:url(#SVGID_00000054263512886253528240000002920490292322978737_);}
	.st62{fill:url(#SVGID_00000035489695054444902820000005864089306127890095_);}
	.st63{clip-path:url(#SVGID_00000120541130108055558790000005363844421876365724_);}
	.st64{fill:url(#SVGID_00000040550747793098681750000014925213711962577343_);}
	.st65{clip-path:url(#SVGID_00000108989529498273089100000013427800126355989151_);}
	.st66{fill:url(#SVGID_00000178183747525462459810000011375190531772206229_);}
	.st67{clip-path:url(#SVGID_00000167361405724993250080000010726988370163393978_);}
	.st68{fill:url(#SVGID_00000078754023411448270230000002830668725283784632_);}
	.st69{clip-path:url(#SVGID_00000081641563171073177890000008441009986370261931_);}
	.st70{fill:url(#SVGID_00000001645068230822374960000011095247626491313557_);}
	.st71{clip-path:url(#SVGID_00000137837469690241380270000011236784229085403055_);}
	.st72{fill:url(#SVGID_00000127741309039740977240000001727543785281305501_);}
	.st73{clip-path:url(#SVGID_00000105423427904348049960000013476092654249222529_);}
	.st74{fill:url(#SVGID_00000141452265870846195250000009711726156321567659_);}
	.st75{clip-path:url(#SVGID_00000064341445578876345250000013970839331001367227_);}
	.st76{fill:url(#SVGID_00000164472596727488116010000001422719555739485112_);}
	.st77{clip-path:url(#SVGID_00000156548908392089008830000012542888370914832819_);}
	.st78{fill:url(#SVGID_00000109008410040471244150000017950217589043254925_);}
	.st79{clip-path:url(#SVGID_00000056395187982244903760000016212992706424808104_);}
	.st80{fill:url(#SVGID_00000051365467108158858100000009140853768156049841_);}
</style>
<g>
	<defs>
		<path id="SVGID_00000080920941805570209690000012344747080521327255_" d="M223,396.4c-3.9-1.4-8.1-1.4-12.2-2.1
			c-22.4-4.1-42.4-13.4-59.9-28c-23.2-19.3-38.5-43.7-44.3-73.4c-8.9-45.7,3.1-85.6,35.8-118.9c20-20.4,44.6-32.5,72.8-36.5
			c36.1-5.1,68.9,3.5,98.1,25.4c0.7,0.5,1.4,1,2.1,1.5c0.1,0,0.2,0,0.4,0c0-5.2,0.2-10.4-0.1-15.5c-0.4-8.2,2.5-14.8,8.3-20.4
			c7.6-7.3,14.9-14.8,22.3-22.2c2-2,4.1-3.5,7.1-2.3c2.8,1.1,3.6,3.3,3.8,6.1c0.6,9.2,1.4,18.4,2.1,27.6c0.1,1.7,0.5,2.4,2.4,2.5
			c9.4,0.6,18.8,1.4,28.3,2.1c2.8,0.2,4.8,1.2,5.7,3.9c0.9,2.6,0,4.6-1.8,6.4c-8.2,8.1-16.3,16.3-24.5,24.4
			c-4.6,4.6-10.3,6.7-16.8,6.6c-5.7-0.1-11.4,0-17.5,0c1.8,2.4,3.4,4.5,5,6.7c18.3,25.8,26.6,54.5,24,86.1
			C359.2,335,317.3,382,259.8,393.9c-4.8,1-9.6,1.7-14.4,2c-0.5,0-1-0.1-1.1,0.5C237.2,396.4,230.1,396.4,223,396.4z M270.8,220.6
			c-12.5-9.5-26.2-13.8-41.7-12.5c-42.1,3.5-66.7,49.9-45.9,86.7c15.3,27,48.2,37.3,76.5,24c4-1.9,7.3-1.1,8.8,2.1
			c1.6,3.3,0.2,6.3-3.8,8.2c-12.9,6.2-26.5,8.3-40.6,6.2c-47.2-6.8-73.9-58.3-52.2-100.7c20-39,70.2-50.3,105.1-23.6
			c1.5,1.2,2.3,1.3,3.7-0.1c3.3-3.5,6.7-6.8,10.1-10.1c1.1-1.1,1.4-1.7,0-2.8c-14.7-12-31.5-18.7-50.4-20c-12.1-0.8-24,0.8-35.5,4.7
			c-3.7,1.3-7-0.1-8-3.3c-1.1-3.2,0.6-6.2,4.3-7.5c8.2-2.9,16.7-4.8,25.4-5.3c27.2-1.8,51.4,6,72.4,23.4c1.4,1.1,1.9,0.7,2.9-0.3
			c3.2-3.3,6.4-6.6,9.7-9.7c1.8-1.6,1.7-2.4-0.1-4c-37.5-32.6-92.4-37.6-136.7-12.4c-46.1,26.2-69.4,81.8-55.5,132.9
			c13.4,49.3,54.7,83.7,105.8,88.1c23.5,2,46-2.4,66.3-14.3c43.6-25.5,64.4-63.9,61.2-114.3c-1.7-26.1-12.2-48.8-29.5-68.5
			c-1-1.1-1.5-1.2-2.6-0.1c-3.5,3.6-6.9,7.1-10.5,10.5c-1.4,1.3-1,2,0,3.2c21.5,25.6,29,54.9,21.9,87.5
			c-11.9,54.8-68.8,89.1-123.1,74.6c-53.3-14.2-85.1-68.1-71.7-121.3c3.1-12.3,8.4-23.6,15.9-33.9c1.5-2.1,3.5-3.1,6.2-2.6
			c2.3,0.5,3.7,1.9,4.3,4.1c0.6,2.2-0.4,4-1.6,5.8c-13.9,19.9-18.9,41.9-15,65.9c8.2,50.6,59.8,84,109.5,70.9
			c35.9-9.5,61.4-38.5,65.9-75.4c3.1-25.3-4.1-47.8-20.3-67.5c-1.1-1.4-1.8-1.8-3.2-0.2c-3,3.3-6.2,6.5-9.5,9.5
			c-1.7,1.6-1.9,2.5-0.3,4.5c14.9,19.3,19,40.7,12.2,64.1c-1.2,4.2-3.9,5.9-7.3,5c-3.6-1-5-4-3.7-8.2c2.8-9.2,3.4-18.5,1.7-27.9
			c-1.9-10.1-6.1-19.1-12.9-27.2c-3.9,3.9-7.6,7.8-11.4,11.5c-1.5,1.4-1.5,2.2-0.4,4c9,14.1,9.7,28.8,0.8,43
			c-8.8,14.1-22.1,20.4-38.7,18.5c-18.4-2.2-31.9-16.1-34.5-35.1c-2.3-16.5,7.8-33.9,23.9-40.7c12.8-5.4,25.1-4.2,36.9,2.9
			c0.8,0.5,1.4,1.7,2.6,0.5C262.3,229,266.5,224.9,270.8,220.6z M249.1,242.2c-9.3-5.3-18.6-5.8-27.8-1.1
			c-9.5,4.9-14.7,13-15.4,23.8c-0.7,11.7,6.3,22.7,17.1,27.3c10.9,4.7,23.6,2.1,31.8-6.6c8.1-8.6,10-21.2,4.8-31.8
			c-1.9-3.9-1.9-3.9-4.9-0.9c-5.2,5.2-10.4,10.4-15.6,15.5c-2.1,2-4.9,2.3-7.1,1c-2.3-1.4-3.1-3.5-2.7-6.1c0.3-1.6,1.4-2.7,2.5-3.8
			C237.5,253.8,243.3,248.1,249.1,242.2z M327.3,164.1c1.3-1.2,2-1.8,2.6-2.5c4.7-4.7,9.2-9.7,14.2-14.1c3.3-2.9,4.5-5.9,3.9-10.1
			c-0.7-4.9-0.9-9.8-1.3-15.2c-5.6,5.6-10.8,10.8-16,16c-2.3,2.3-3.5,5.1-3.5,8.4C327.3,152.2,327.3,157.7,327.3,164.1z
			 M335.8,171.4c0.2,0.3,0.4,0.6,0.5,0.8c6.2,0,12.3,0.1,18.5,0c1.9,0,3.8-0.8,5.2-2.2c5.6-5.6,11.2-11.4,16.9-17.2
			c-5.9-0.4-11.7-0.7-17.6-1.3c-2.3-0.2-3.7,0.5-5.2,2c-4.9,5.1-9.9,10-14.9,15C338.2,169.6,337,170.4,335.8,171.4z"/>
	</defs>
	<clipPath id="SVGID_00000151543292177895108340000002372990804883548813_">
		<use xlink:href="#SVGID_00000080920941805570209690000012344747080521327255_"  style="overflow:visible;"/>
	</clipPath>
	
		<linearGradient id="SVGID_00000068640485406326512530000000457307240201218446_" gradientUnits="userSpaceOnUse" x1="266.057" y1="425.3112" x2="266.057" y2="-98.0844">
		<stop  offset="0" style="stop-color:#791689"/>
		<stop  offset="1" style="stop-color:#6231FF"/>
	</linearGradient>
	
		<rect x="72.9" y="-122.4" style="clip-path:url(#SVGID_00000151543292177895108340000002372990804883548813_);fill:url(#SVGID_00000068640485406326512530000000457307240201218446_);" width="386.4" height="550"/>
</g>
<g>
	<defs>
		<path id="SVGID_00000111166182793613532260000012377580891623471527_" d="M178.7,184.3c3.1,0,5.8,2.7,5.8,5.8
			c-0.1,3-2.7,5.5-5.7,5.6c-3.1,0-5.6-2.4-5.7-5.5C173,186.9,175.5,184.3,178.7,184.3z"/>
	</defs>
	<clipPath id="SVGID_00000147192241248578522200000018277274837507378364_">
		<use xlink:href="#SVGID_00000111166182793613532260000012377580891623471527_"  style="overflow:visible;"/>
	</clipPath>
	
		<linearGradient id="SVGID_00000168815523460870457160000006626137882518908038_" gradientUnits="userSpaceOnUse" x1="266.057" y1="425.3112" x2="266.057" y2="-98.0844">
		<stop  offset="0" style="stop-color:#791689"/>
		<stop  offset="1" style="stop-color:#6231FF"/>
	</linearGradient>
	
		<rect x="72.9" y="-122.4" style="clip-path:url(#SVGID_00000147192241248578522200000018277274837507378364_);fill:url(#SVGID_00000168815523460870457160000006626137882518908038_);" width="386.4" height="550"/>
</g>
<g>
	<defs>
		<path id="SVGID_00000148657801092710942170000018285174299059391409_" d="M283.5,301.8c3.2,0,5.6,2.5,5.6,5.6
			c0,3.2-2.6,5.8-5.9,5.7c-3.1-0.1-5.6-2.7-5.5-5.8C277.8,304.2,280.3,301.8,283.5,301.8z"/>
	</defs>
	<clipPath id="SVGID_00000000223087133676801740000012538491934662805413_">
		<use xlink:href="#SVGID_00000148657801092710942170000018285174299059391409_"  style="overflow:visible;"/>
	</clipPath>
	
		<linearGradient id="SVGID_00000168821827071827487160000014604881499377918119_" gradientUnits="userSpaceOnUse" x1="266.057" y1="425.3112" x2="266.057" y2="-98.0844">
		<stop  offset="0" style="stop-color:#791689"/>
		<stop  offset="1" style="stop-color:#6231FF"/>
	</linearGradient>
	
		<rect x="72.9" y="-122.4" style="clip-path:url(#SVGID_00000000223087133676801740000012538491934662805413_);fill:url(#SVGID_00000168821827071827487160000014604881499377918119_);" width="386.4" height="550"/>
</g>
</svg>
