<?xml version="1.0" encoding="utf-8"?>
<!-- Generator: Adobe Illustrator 26.5.0, SVG Export Plug-In . SVG Version: 6.00 Build 0)  -->
<svg version="1.1" id="Camada_1" xmlns="http://www.w3.org/2000/svg" xmlns:xlink="http://www.w3.org/1999/xlink" x="0px" y="0px"
	 viewBox="0 0 500 500" style="enable-background:new 0 0 500 500;" xml:space="preserve">
<style type="text/css">
	.st0{clip-path:url(#SVGID_00000093870611305136144820000004049125724223874474_);}
	.st1{fill:url(#SVGID_00000127764979480602318620000003831659471277618591_);}
	.st2{clip-path:url(#SVGID_00000036944040227948414020000004773689374192755613_);}
	.st3{fill:url(#SVGID_00000005949928552815289840000012679342479996531105_);}
	.st4{clip-path:url(#SVGID_00000031928004575157910750000010578512515185258414_);}
	.st5{fill:url(#SVGID_00000110459797231591248310000001820367550578524600_);}
	.st6{clip-path:url(#SVGID_00000013904618437082079060000005606677078779193259_);}
	.st7{fill:url(#SVGID_00000090253756454749748990000000378311780451087254_);}
	.st8{clip-path:url(#SVGID_00000156585721835901492700000001979571960165024392_);}
	.st9{fill:url(#SVGID_00000183230683755386069540000003650679968127774138_);}
	.st10{clip-path:url(#SVGID_00000015354065289448297940000003183397631772271764_);}
	.st11{fill:url(#SVGID_00000109005282555081278550000001282475682854077115_);}
	.st12{clip-path:url(#SVGID_00000035507004555492322310000011629785376121717429_);}
	.st13{fill:url(#SVGID_00000163043287092989566940000010873120163189745816_);}
	.st14{clip-path:url(#SVGID_00000135664985188153631910000006691083134760761221_);}
	.st15{fill:url(#SVGID_00000107546752956575070930000011305100292661877128_);}
	.st16{clip-path:url(#SVGID_00000034060827552388073780000000546135412226407325_);}
	.st17{fill:url(#SVGID_00000176743985084630428850000014422395835859037629_);}
	.st18{clip-path:url(#SVGID_00000062898491421787244340000006201728894198749845_);}
	.st19{fill:url(#SVGID_00000042708027780600655910000005153155207788738695_);}
	.st20{clip-path:url(#SVGID_00000016766445803120045850000012274768491155805090_);}
	.st21{fill:url(#SVGID_00000116205311871814259250000002932846206401941377_);}
	.st22{clip-path:url(#SVGID_00000078759913779205567710000013131445583438716552_);}
	.st23{fill:url(#SVGID_00000044139398078330313260000015106232474485191095_);}
	.st24{clip-path:url(#SVGID_00000066514694044507723370000011359231142804583070_);}
	.st25{fill:url(#SVGID_00000168106451712270979140000017605475275073703575_);}
	.st26{clip-path:url(#SVGID_00000054967575994953904150000006998707169693023422_);}
	.st27{fill:url(#SVGID_00000166669959907999141980000009971435578187132857_);}
	.st28{clip-path:url(#SVGID_00000065047881506423328880000014035158910744700607_);}
	.st29{fill:url(#SVGID_00000078043844604053769630000010061801812392831116_);}
	.st30{clip-path:url(#SVGID_00000080911193766686992310000002544337095794679478_);}
	.st31{fill:url(#SVGID_00000013177460407890327820000001545370409066054542_);}
	.st32{clip-path:url(#SVGID_00000183930331185776201890000013693627660989261986_);}
	.st33{fill:url(#SVGID_00000132771259008908035250000012040491306041316018_);}
	.st34{clip-path:url(#SVGID_00000045607635733680330350000010246651958530563756_);}
	.st35{fill:url(#SVGID_00000127009614772903224150000003910386582937236665_);}
	
		.st36{clip-path:url(#SVGID_00000168082733737590755110000001481364691708350096_);fill:url(#SVGID_00000032640937784288003810000002749537085288024209_);}
	
		.st37{clip-path:url(#SVGID_00000011024508385536717240000001870379217238027653_);fill:url(#SVGID_00000166642225630228203540000010182541934053600652_);}
	
		.st38{clip-path:url(#SVGID_00000075869597827946113130000007410029588877769095_);fill:url(#SVGID_00000102516275850772351370000005364775884957451407_);}
	.st39{clip-path:url(#SVGID_00000163071471715224571090000016981330419892673958_);}
	.st40{fill:url(#SVGID_00000016077351680592828160000004053134427836962952_);}
	.st41{clip-path:url(#SVGID_00000114776423858326967590000018418514933425370263_);}
	.st42{fill:url(#SVGID_00000142148487276764870770000003027428657890868353_);}
	.st43{clip-path:url(#SVGID_00000129184417305050358890000004400401920324629898_);}
	.st44{fill:url(#SVGID_00000022519750411661118800000011280580542687218833_);}
	.st45{clip-path:url(#SVGID_00000079451684817197987800000007537164574782939784_);}
	.st46{fill:url(#SVGID_00000003084723314037991930000018069633823071564708_);}
	.st47{clip-path:url(#SVGID_00000126325942647688043250000012395849323727683739_);}
	.st48{fill:url(#SVGID_00000078008862075987284000000017865148822239304068_);}
	
		.st49{clip-path:url(#SVGID_00000155840740299087842330000001458804138076503204_);fill:url(#SVGID_00000008830579501983435070000013039696331596512665_);}
	
		.st50{clip-path:url(#SVGID_00000147210784361458667050000011109709148536165781_);fill:url(#SVGID_00000177474134243280712730000013077588103685386686_);}
	
		.st51{clip-path:url(#SVGID_00000181803749897606525610000002628640862441935522_);fill:url(#SVGID_00000089547628619877395020000008476965324490333609_);}
	
		.st52{clip-path:url(#SVGID_00000127040462798178277070000004323658412829915070_);fill:url(#SVGID_00000176033966445724840840000000628252947905324726_);}
	
		.st53{clip-path:url(#SVGID_00000096031396338627116060000000332047692767273105_);fill:url(#SVGID_00000065051113028196665620000002606682314477997713_);}
	
		.st54{clip-path:url(#SVGID_00000017505376558717996090000010034114866304302475_);fill:url(#SVGID_00000161606714116873348290000005672440532919838877_);}
	
		.st55{clip-path:url(#SVGID_00000058589120330829688500000008548847428993399199_);fill:url(#SVGID_00000034052148349418246400000018005260919520769665_);}
	
		.st56{clip-path:url(#SVGID_00000079464563815092151930000018423463422000976051_);fill:url(#SVGID_00000113326458095171265390000008732977826281987242_);}
	
		.st57{clip-path:url(#SVGID_00000059304648994802846210000017013059139016956829_);fill:url(#SVGID_00000171702734041423770540000014080254241972728475_);}
	
		.st58{clip-path:url(#SVGID_00000090992814179144325360000010117504975386224561_);fill:url(#SVGID_00000023985313147870456110000010067304816211788933_);}
	
		.st59{clip-path:url(#SVGID_00000105386699552928497950000008950251182796003504_);fill:url(#SVGID_00000170278613639606679330000013622732136573070212_);}
	
		.st60{clip-path:url(#SVGID_00000018959550954087783200000011029953255517043384_);fill:url(#SVGID_00000163792199669974869520000016342287470215587750_);}
	.st61{clip-path:url(#SVGID_00000085934559271130874200000002512409095776827312_);}
	.st62{fill:url(#SVGID_00000109009538284268511630000007698459184794528666_);}
	.st63{clip-path:url(#SVGID_00000039121800027599422380000002912965616946462395_);}
	.st64{fill:url(#SVGID_00000053532952848144136830000005416965796068943237_);}
	.st65{clip-path:url(#SVGID_00000031927760179002891940000010551757267810062482_);}
	.st66{fill:url(#SVGID_00000018218468979076454140000013641266152818563493_);}
	.st67{clip-path:url(#SVGID_00000114045054984790281630000015912230187221964698_);}
	.st68{fill:url(#SVGID_00000037692332548318087710000013150113127241530038_);}
	.st69{clip-path:url(#SVGID_00000016043762869724815350000011027635864727051700_);}
	.st70{fill:url(#SVGID_00000035512784448104463880000008181346221105111940_);}
	.st71{clip-path:url(#SVGID_00000066505027614503162750000016781140828310953617_);}
	.st72{fill:url(#SVGID_00000162329628124331909900000005619415245037225368_);}
	.st73{clip-path:url(#SVGID_00000071558747403821179450000005759017510330472320_);}
	.st74{fill:url(#SVGID_00000120545608771255784580000002737178218255370658_);}
	.st75{clip-path:url(#SVGID_00000181087489092986901510000009637451177366121907_);}
	.st76{fill:url(#SVGID_00000137847482098068599200000001601220987432570248_);}
	.st77{clip-path:url(#SVGID_00000060741932648229992100000014117231380437153691_);}
	.st78{fill:url(#SVGID_00000040549948121378438970000014173719894752941709_);}
	.st79{clip-path:url(#SVGID_00000163758178148502106500000003993179042523233182_);}
	.st80{fill:url(#SVGID_00000105390967932764102470000000661509460140166531_);}
</style>
<g>
	<g>
		<defs>
			<path id="SVGID_00000054263469070984630880000009511125097301664679_" d="M392.6,261.1c-1.1,1.2-0.9,2.9-1.3,4.3
				c-5,17.9-16.4,29.6-34.5,34.7c-1.9,0.5-2.6,1.2-2.6,3.3c0,7.8-0.2,15.6-0.3,23.3c0,2.6-0.7,4.8-3.2,6c-2.6,1.3-4.8,0.3-6.9-1.4
				c-11.7-9.4-23.5-18.7-35.3-28c-1.5-1.2-2.9-1.8-4.8-1.7c-2.8,0.2-5.6,0.2-8.3,0c-2.5-0.2-2.8,0.7-2.8,2.9
				c0.1,13.5,0.1,27.1,0.1,40.6c0,10.3-5.3,15.6-15.6,15.6c-5.1,0-10.2,0-15.3,0c-3.9,0-6.3-2.1-6.3-5.5c0-3.4,2.4-5.6,6.5-5.6
				c5.3,0,10.6-0.1,15.9,0c2.6,0,3.7-1.1,3.7-3.6c0-20.3,0-40.6,0-60.9c0-3-0.8-3.7-3.9-3.7c-51.8,0-103.6,0-155.4,0
				c-3.1,0-3.7,0.6-3.7,3.8c0,20.2,0,40.4,0,60.6c0,3.2,0.6,3.8,3.7,3.8c6.2,0,12.4,0,18.7,0c6.3,0,8,1.7,8,8.1c0,5.7,0,11.5,0,17.2
				c1.3,0.4,1.8-0.6,2.5-1.1c9.9-7.2,19.7-14.5,29.5-21.9c2.3-1.7,4.6-2.5,7.4-2.4c7.3,0.1,14.7,0,22,0c2.5,0,4.5,0.9,5.7,3.2
				c0.9,1.9,0.7,3.8-0.5,5.5c-1.3,1.9-3.2,2.4-5.3,2.4c-6.4,0-12.8,0.1-19.2-0.1c-2.2,0-3.9,0.5-5.6,1.8
				c-12.5,9.3-25,18.5-37.5,27.8c-2.2,1.7-4.5,2.7-7.2,1.3c-2.6-1.4-3-3.8-3-6.4c0-7.1-0.1-14.3,0.1-21.4c0-2.3-0.4-3.3-3-3.1
				c-4.1,0.3-8.2,0-12.3,0.1c-7,0.2-11.9-2.8-14.5-9.4c-0.1-0.3-0.2-0.7-0.7-0.8c0-23.4,0-46.7,0-70.1c3.5-8.6,10.3-10.5,19-10.4
				c20.8,0.4,41.6,0.1,62.4,0.2c2,0,2.8-0.2,2-2.5c-1.5-4.5-2.2-9.2-2-13.9c0.1-1.9-0.5-2.5-2.3-2.8c-7.7-1.2-15.2-3.2-22.5-5.9
				c-2-0.7-3.6-0.6-5.6,0c-11.2,3.9-22.4,7.6-33.6,11.4c-2.5,0.9-4.9,1.2-7-0.9c-2.2-2.1-1.8-4.6-0.9-7.2c2.8-8,5.4-16.1,8.3-24.1
				c0.6-1.8,0.5-2.9-0.9-4.3c-7.5-7.9-12.9-17.1-15.5-27.8c-0.4-1.7-0.2-3.7-1.3-5.2c0-4.6,0-9.3,0-13.9c0.8-0.2,0.6-0.8,0.7-1.3
				c3-16.5,12.2-29.1,25.1-39.3c16.7-13.2,36-20,56.8-23.4c3.7-0.6,7.5-0.4,11-1.6c7.4,0,14.9,0,22.3,0c0.2,0.6,0.7,0.5,1.1,0.5
				c9.7,0.6,19.3,2.3,28.7,5.1c18.5,5.5,35.3,14,48.4,28.5c13.3,14.8,19.1,31.9,14.3,51.7c-1.1,4.7-3.1,9-5.4,13.6c1.3,0,2.1,0,3,0
				c10.7,0,21.3,0,32,0c21.5,0.1,40.1,14.5,45.6,35.2c0.5,2,0.5,4.1,1.6,6C392.6,252.6,392.6,256.9,392.6,261.1z M130.5,242.9
				c9.5-3.2,18.6-6.2,27.5-9.4c2.4-0.9,4.6-0.8,7,0.2c7.7,3.1,15.7,5.1,23.8,6.6c1.5,0.3,2.1,0,2.6-1.4
				c7.8-20.3,24.4-31.8,46.1-31.8c19,0,38.1,0,57.1,0c1.4,0,2.5,0,3.5-1.5c10-15.1,11.1-30.7,2.2-46.6c-7.3-13-18.7-21.7-31.9-27.9
				c-31.6-14.9-64.3-16.1-97.5-5.9c-15.8,4.9-29.9,12.9-40.8,25.7c-8.6,10.2-13.1,21.8-11.1,35.4c1.7,11.6,7.6,20.9,15.9,28.8
				c2.7,2.6,3.4,5.1,2.1,8.7C134.7,230,132.8,236.2,130.5,242.9z M343.3,316.7c0-6.7-0.1-12.5,0-18.3c0.1-6.2,1.2-7.4,7.3-8.2
				c18.4-2.6,32-19.5,30.8-38.2c-1.2-18.5-16.9-33.6-35.4-33.6c-36.9-0.1-73.7-0.1-110.6,0c-24.9,0.1-42.1,25.8-33.2,49.1
				c0.9,2.3,2,3,4.4,3c23.8-0.1,47.5-0.1,71.3,0c8.7,0,14.3,5.3,14.7,13.7c0.1,2.1-0.9,4.9,0.4,6.1c1.4,1.3,4.3,0.7,6.4,0.4
				c7.8-1.1,13.8,1.8,19.6,6.9C326.6,304,334.7,309.9,343.3,316.7z"/>
		</defs>
		<clipPath id="SVGID_00000067193757955036478350000007893712554902614205_">
			<use xlink:href="#SVGID_00000054263469070984630880000009511125097301664679_"  style="overflow:visible;"/>
		</clipPath>
		
			<linearGradient id="SVGID_00000025413252376378045610000007117458630213394597_" gradientUnits="userSpaceOnUse" x1="266.057" y1="425.3112" x2="266.057" y2="-98.0844">
			<stop  offset="0" style="stop-color:#791689"/>
			<stop  offset="1" style="stop-color:#6231FF"/>
		</linearGradient>
		
			<rect x="72.9" y="-122.4" style="clip-path:url(#SVGID_00000067193757955036478350000007893712554902614205_);fill:url(#SVGID_00000025413252376378045610000007117458630213394597_);" width="386.4" height="550"/>
	</g>
	<g>
		<defs>
			<path id="SVGID_00000084522255809206277800000015478442277791013773_" d="M235.9,360.8c-3.1,0-5.4-2.4-5.5-5.4
				c0-3.1,2.5-5.7,5.6-5.6c2.9,0.1,5.5,2.6,5.5,5.5C241.6,358.3,239.1,360.8,235.9,360.8z"/>
		</defs>
		<clipPath id="SVGID_00000090283136448119395100000004481538197834056866_">
			<use xlink:href="#SVGID_00000084522255809206277800000015478442277791013773_"  style="overflow:visible;"/>
		</clipPath>
		
			<linearGradient id="SVGID_00000062180837166815329610000013536068529350104240_" gradientUnits="userSpaceOnUse" x1="266.057" y1="425.3112" x2="266.057" y2="-98.0844">
			<stop  offset="0" style="stop-color:#791689"/>
			<stop  offset="1" style="stop-color:#6231FF"/>
		</linearGradient>
		
			<rect x="72.9" y="-122.4" style="clip-path:url(#SVGID_00000090283136448119395100000004481538197834056866_);fill:url(#SVGID_00000062180837166815329610000013536068529350104240_);" width="386.4" height="550"/>
	</g>
</g>
</svg>
