<?xml version="1.0" encoding="utf-8"?>
<!-- Generator: Adobe Illustrator 26.5.0, SVG Export Plug-In . SVG Version: 6.00 Build 0)  -->
<svg version="1.1" id="Camada_1" xmlns="http://www.w3.org/2000/svg" xmlns:xlink="http://www.w3.org/1999/xlink" x="0px" y="0px"
	 viewBox="0 0 500 500" style="enable-background:new 0 0 500 500;" xml:space="preserve">
<style type="text/css">
	.st0{clip-path:url(#SVGID_00000156587277093083938650000016795943659737078146_);}
	.st1{fill:url(#SVGID_00000150821875165299645080000011088928481252532387_);}
	.st2{clip-path:url(#SVGID_00000045584931007756741550000009972339056015426212_);}
	.st3{fill:url(#SVGID_00000160182412268472481760000012528306675777557949_);}
	.st4{clip-path:url(#SVGID_00000113348889350304423460000010523587795910607795_);}
	.st5{fill:url(#SVGID_00000134234081294313810900000007397776559209716113_);}
	.st6{clip-path:url(#SVGID_00000069364552918388967550000001602861767978926495_);}
	.st7{fill:url(#SVGID_00000143618391787876403040000005786536163165417345_);}
	.st8{clip-path:url(#SVGID_00000081621256745857410030000017681790071965107354_);}
	.st9{fill:url(#SVGID_00000145769467231913214190000011248829976821314458_);}
	.st10{clip-path:url(#SVGID_00000060721067031398763200000002261071893102513060_);}
	.st11{fill:url(#SVGID_00000057830427358136402580000013385535062897309312_);}
	.st12{clip-path:url(#SVGID_00000176755204754660709580000003453418104172989095_);}
	.st13{fill:url(#SVGID_00000073700018249607255680000013590397957254480031_);}
	.st14{clip-path:url(#SVGID_00000114040863746439083490000014348016678719908744_);}
	.st15{fill:url(#SVGID_00000129206368698570006530000015543903468721676712_);}
	.st16{clip-path:url(#SVGID_00000013170427751268713950000009534781941749504432_);}
	.st17{fill:url(#SVGID_00000055671495267993476790000008373413453537592765_);}
	.st18{clip-path:url(#SVGID_00000114056914888428606380000002802573084678266245_);}
	.st19{fill:url(#SVGID_00000029746286464798025880000016937090467419584674_);}
	.st20{clip-path:url(#SVGID_00000142877696701518362180000008904479672768084623_);}
	.st21{fill:url(#SVGID_00000040534554104142424510000005151088732976249506_);}
	.st22{clip-path:url(#SVGID_00000094577474360172850060000009557640823287673273_);}
	.st23{fill:url(#SVGID_00000100354781835680301960000002524826774586325929_);}
	.st24{clip-path:url(#SVGID_00000047043888923299708090000015910969361288599986_);}
	.st25{fill:url(#SVGID_00000109732547221765695780000009894880804334932625_);}
	.st26{clip-path:url(#SVGID_00000091726345554718527200000008956050184034436759_);}
	.st27{fill:url(#SVGID_00000146476273575999593830000017445735110630825407_);}
	.st28{clip-path:url(#SVGID_00000025433179144374017430000010779659631697132979_);}
	.st29{fill:url(#SVGID_00000125597802966218336550000016829418982725918608_);}
	.st30{clip-path:url(#SVGID_00000027592169696663543100000008952810787791207871_);}
	.st31{fill:url(#SVGID_00000018944063437226900550000015093582817956670399_);}
	.st32{clip-path:url(#SVGID_00000021804726322561059700000013911463843695892384_);}
	.st33{fill:url(#SVGID_00000172417512137496812280000017181064342811786926_);}
	.st34{clip-path:url(#SVGID_00000117634079560256730190000015835093761251772050_);}
	.st35{fill:url(#SVGID_00000168079001968000354740000017710069571204512185_);}
	
		.st36{clip-path:url(#SVGID_00000166646999150327867320000003334504352391317174_);fill:url(#SVGID_00000157297842039680786310000016051577026446990979_);}
	
		.st37{clip-path:url(#SVGID_00000119097675609895682360000001891163748822641810_);fill:url(#SVGID_00000151509770736657830710000018305517971087245243_);}
	
		.st38{clip-path:url(#SVGID_00000151538086184653598430000003151241880338800535_);fill:url(#SVGID_00000034784653879002367910000014739886706224479917_);}
	.st39{clip-path:url(#SVGID_00000088114696840883130530000010820736172629601168_);}
	.st40{fill:url(#SVGID_00000070096843638304593130000011716796130885059980_);}
	.st41{clip-path:url(#SVGID_00000165954559453933583190000012352967823190262402_);}
	.st42{fill:url(#SVGID_00000088130089303188772000000016684659432979958914_);}
	.st43{clip-path:url(#SVGID_00000088100793114494840050000011096535092119426969_);}
	.st44{fill:url(#SVGID_00000138568232198900217030000008930886009346867621_);}
	.st45{clip-path:url(#SVGID_00000131327553684449425150000003986943579315697797_);}
	.st46{fill:url(#SVGID_00000136394646510490576480000001270422067408834710_);}
	.st47{clip-path:url(#SVGID_00000096059493766557367180000004837413502613890462_);}
	.st48{fill:url(#SVGID_00000064343279524559820200000015589626758552085156_);}
	
		.st49{clip-path:url(#SVGID_00000059275006236931034180000000977364086453787558_);fill:url(#SVGID_00000154405725918607273210000007169195345323536551_);}
	
		.st50{clip-path:url(#SVGID_00000048487784275229258700000001561353836907788702_);fill:url(#SVGID_00000097475145463858506800000010525060680671527560_);}
	
		.st51{clip-path:url(#SVGID_00000153680890960270733470000002266311447840010388_);fill:url(#SVGID_00000160184979002179296300000003343187355946089095_);}
	
		.st52{clip-path:url(#SVGID_00000045588415746507584320000018366377838386919351_);fill:url(#SVGID_00000080905723018422022220000000879209038355365038_);}
	
		.st53{clip-path:url(#SVGID_00000084525176754103092420000004317612817586655127_);fill:url(#SVGID_00000143594318502623632650000000210260233871186597_);}
	
		.st54{clip-path:url(#SVGID_00000002356187801811292200000009346851951506172293_);fill:url(#SVGID_00000041275658716983266220000003059346556691515276_);}
	
		.st55{clip-path:url(#SVGID_00000139263234308596079790000017615944097052483971_);fill:url(#SVGID_00000142887641175453473830000014177285769965266837_);}
	
		.st56{clip-path:url(#SVGID_00000155115303396980814130000008290068513269102987_);fill:url(#SVGID_00000005253492280237056110000011586282760329151386_);}
	
		.st57{clip-path:url(#SVGID_00000021081097275901459950000008086438914637695658_);fill:url(#SVGID_00000038393459787347882240000010773714644835538098_);}
	
		.st58{clip-path:url(#SVGID_00000026854390923244635980000015064910963667713723_);fill:url(#SVGID_00000173871031821132994680000001134731001912403896_);}
	
		.st59{clip-path:url(#SVGID_00000112620930826212342000000007360657873181410207_);fill:url(#SVGID_00000145748991766759174270000007537166237552252599_);}
	
		.st60{clip-path:url(#SVGID_00000151536016442346602370000003363085497806503837_);fill:url(#SVGID_00000045601887799080785460000010484367803013590415_);}
	.st61{clip-path:url(#SVGID_00000064348233015588471640000016558118220870017427_);}
	.st62{fill:url(#SVGID_00000134237141184725824590000004553595795396221113_);}
	.st63{clip-path:url(#SVGID_00000036957009425327332880000007812396840269453988_);}
	.st64{fill:url(#SVGID_00000091703999026104496490000005957101863012244656_);}
	.st65{clip-path:url(#SVGID_00000146465497651318914960000012079611895773567146_);}
	.st66{fill:url(#SVGID_00000132077059765667088670000016080240758169540767_);}
	.st67{clip-path:url(#SVGID_00000154416354004110693400000004961196700419346849_);}
	.st68{fill:url(#SVGID_00000094604639645276928400000001709181477238763925_);}
	.st69{clip-path:url(#SVGID_00000116233528059852698760000012770340378378598813_);}
	.st70{fill:url(#SVGID_00000121257396822788781740000015413203543885102479_);}
	.st71{clip-path:url(#SVGID_00000043444149521330592540000002352749823419043487_);}
	.st72{fill:url(#SVGID_00000066494281841793250930000009810722940345390778_);}
	.st73{clip-path:url(#SVGID_00000151533053085331178540000008855131093431744676_);}
	.st74{fill:url(#SVGID_00000024692251400366493170000006446583902817409971_);}
	.st75{clip-path:url(#SVGID_00000124849389868834068530000012611630229542044300_);}
	.st76{fill:url(#SVGID_00000051360315794569899180000005032940189373799816_);}
	.st77{clip-path:url(#SVGID_00000053534321611131052730000001952107651353679281_);}
	.st78{fill:url(#SVGID_00000058563956572160707490000009816454323891490982_);}
	.st79{clip-path:url(#SVGID_00000124158831737159334470000009424656097182482620_);}
	.st80{fill:url(#SVGID_00000013913789598862372780000017545431843257307788_);}
</style>
<g>
	<g>
		<defs>
			<path id="SVGID_00000078019158382814466600000007021878447685910146_" d="M285.5,100.5c0.1,0.5,0.4,0.5,0.8,0.6
				c11.1,2.6,18.1,11.1,18.4,22.5c0.2,9,0.1,17.9,0,26.9c0,3.9-2.2,6.5-5.5,6.7c-3.2,0.2-5.7-2.1-6.1-6c-0.1-1.4-0.6-1.6-1.8-1.5
				c-0.5,0.1-1,0-1.5,0c-53.1,0-106.3,0-159.4-0.1c-2.6,0-3.3,0.5-3.3,3.2c0.1,62.9,0.1,125.8,0,188.7c0,2.7,0.8,3.2,3.3,3.2
				c39.5-0.1,79-0.1,118.6-0.1c0.9,0,1.9,0,3.2,0c-3.8-6.6-7.4-12.7-10.9-19c-1-1.8-2-0.5-2.8,0c-6.4,3.8-13.2,5.5-20.6,5.1
				c-15.1-0.8-29-13.7-30.6-28.8c-1.6-15,4.2-26.3,17.1-34c8.4-5,17-9.9,25.5-14.7c1.3-0.7,2.3-1.6,3.3-2.8
				c21.5-27.4,42.9-54.8,64.4-82.3c4.1-5.2,8.4-4.9,11.6,0.7c6.5,11.3,13,22.5,19.5,33.8c0.8,1.4,1.4,1.8,3.1,1.4
				c11.4-2.5,23,2.6,28.6,12.6c5.6,9.8,4.3,22-3.5,30.6c-1.2,1.3-1.3,2.2-0.4,3.7c6.6,11.3,13.2,22.7,19.7,34
				c3.1,5.4,1.1,9.2-5.1,10.1c-21.4,3-42.7,6.2-64.1,9.1c-2.1,0.3-2.4,1-2.4,2.9c0.1,22.7,0.1,45.4,0,68c0,11.8-6.3,20.4-17.1,23.6
				c-2.4,0.7-5,0.9-7.5,0.9c-46.6,0-93.3-0.1-139.9,0c-11.4,0-21-6.5-23.8-16.9c-0.1-0.5-0.2-1.2-1-1.3c0-87.6,0-175.2,0-262.8
				c1-0.4,0.9-1.3,1.2-2.1c1.6-5.1,4.8-9,9-12.1c2.6-1.9,5.8-2.3,8.5-3.9C184.6,100.5,235,100.5,285.5,100.5z M210.1,356.2
				c-26.8,0-53.5,0-80.3-0.1c-2.2,0-2.8,0.5-2.7,2.7c0.2,5.5,0,11.1,0.1,16.6c0,7.6,4.6,12.3,12.1,12.3c47.2,0,94.4,0,141.6,0
				c7.5,0,12.1-4.7,12.1-12.3c0-5.4-0.1-10.9,0.1-16.3c0.1-2.4-0.6-3-3-3C263.4,356.3,236.8,356.2,210.1,356.2z M334.7,288.4
				c-16.6-28.7-32.9-57-49.4-85.5c-0.4,0.4-0.7,0.5-0.9,0.8c-13.5,17.3-27.1,34.6-40.7,51.9c-1,1.3-0.6,2.1,0,3.3
				c7.2,12.3,14.3,24.7,21.3,37.1c1,1.7,2.1,2.2,3.9,1.9C290.8,294.7,312.5,291.6,334.7,288.4z M210.1,137.8c8.6,0,17.1,0,25.7,0
				c18.2,0,36.4,0,54.6,0.1c2.2,0,2.8-0.5,2.7-2.7c-0.2-3.2-0.1-6.4-0.1-9.6c0-9.1-4.3-13.4-13.3-13.4c-39.1,0-78.2,0-117.3,0
				c-7.7,0-15.4,0-23.1,0c-7.4,0-12,4.7-12.1,12c0,3.6,0.2,7.2-0.1,10.8c-0.2,2.5,0.7,2.9,3,2.9
				C156.8,137.8,183.5,137.8,210.1,137.8z M220.7,319c3.1,0.1,6.2-0.5,9.1-2.1c8.1-4.5,16.2-9.2,24.3-13.8c1.2-0.7,1.1-1.2,0.5-2.3
				c-6.8-11.7-13.5-23.3-20.2-35c-0.5-0.8-0.8-1.5-1.9-0.7c-8.3,5-17,9.3-25,14.8c-7.5,5.2-10.5,15.4-7.7,24.2
				C202.6,312.9,211.3,319.1,220.7,319z M302.5,180.6c-2.7,3.4-5,6.6-7.6,9.6c-1.6,1.9-1.8,3.2-0.5,5.5
				c7.8,13.2,15.4,26.5,23.1,39.8c9.5,16.4,18.9,32.8,28.4,49.1c0.5,0.8,0.6,2.2,2.1,2c4.7-0.7,9.4-1.4,14.4-2.1
				C342.4,249.7,322.6,215.3,302.5,180.6z M272.8,309c0.7,1.2,1.1,2,1.6,2.9c4.3,7.5,8.6,14.9,12.9,22.4c2.4,4.2,2,6.3-1.6,9.3
				c-0.2,0.2-0.7,0.3-0.4,0.9c1.8,0,3.6-0.1,5.5,0c1.8,0.1,2.3-0.4,2.3-2.2c-0.1-6.4,0-12.8,0-19.2c0-5.6,0-11.2,0-17
				C286.3,307.1,279.8,308,272.8,309z M261,312.6c-0.2,0.1-0.4,0.2-0.5,0.3c-2.9,1.7-5.9,3.4-8.8,5.1c-1,0.6-0.6,1.2-0.2,1.9
				c4.1,7,8.2,14.1,12.2,21.1c0.6,1,1,1.4,2.2,0.7c2.5-1.6,5.1-3.1,7.8-4.5c1.1-0.6,1.4-1,0.7-2.2c-4.1-7-8.2-14.1-12.3-21.1
				C261.8,313.4,261.7,312.8,261,312.6z M335.9,215c4.6,8,9,15.5,13.5,23.4c3.3-5.4,3.8-10.6,0.9-15.8
				C347.3,217.2,342.6,214.9,335.9,215z"/>
		</defs>
		<clipPath id="SVGID_00000171703532546050978610000001114340622538603668_">
			<use xlink:href="#SVGID_00000078019158382814466600000007021878447685910146_"  style="overflow:visible;"/>
		</clipPath>
		<g style="clip-path:url(#SVGID_00000171703532546050978610000001114340622538603668_);">
			
				<linearGradient id="SVGID_00000162317719566141258800000007252812049270967963_" gradientUnits="userSpaceOnUse" x1="281.057" y1="425.3112" x2="281.057" y2="-98.0844">
				<stop  offset="0" style="stop-color:#791689"/>
				<stop  offset="1" style="stop-color:#6231FF"/>
			</linearGradient>
			
				<rect x="87.9" y="-122.4" style="fill:url(#SVGID_00000162317719566141258800000007252812049270967963_);" width="386.4" height="550"/>
		</g>
	</g>
	<g>
		<defs>
			<path id="SVGID_00000065038827022675321260000005789396519726739858_" d="M185.9,178.2c-12.7,0-25.5,0-38.2,0
				c-1.1,0-2.2,0-3.2-0.2c-2.6-0.5-4.4-2.7-4.6-5.3c-0.1-2.7,1.4-4.9,4-5.7c1.2-0.4,2.5-0.4,3.7-0.4c25.6,0,51.1,0,76.7,0
				c1.2,0,2.3,0.1,3.4,0.4c2.6,0.7,4.3,3,4.2,5.6c-0.1,2.6-2.1,5.1-4.7,5.5c-1,0.2-2.1,0.1-3.2,0.2
				C211.4,178.2,198.6,178.2,185.9,178.2z"/>
		</defs>
		<clipPath id="SVGID_00000015350331836867606540000014926727175853962369_">
			<use xlink:href="#SVGID_00000065038827022675321260000005789396519726739858_"  style="overflow:visible;"/>
		</clipPath>
		<g style="clip-path:url(#SVGID_00000015350331836867606540000014926727175853962369_);">
			
				<linearGradient id="SVGID_00000035526129834675324300000003083291221780517563_" gradientUnits="userSpaceOnUse" x1="281.057" y1="425.3112" x2="281.057" y2="-98.0844">
				<stop  offset="0" style="stop-color:#791689"/>
				<stop  offset="1" style="stop-color:#6231FF"/>
			</linearGradient>
			
				<rect x="87.9" y="-122.4" style="fill:url(#SVGID_00000035526129834675324300000003083291221780517563_);" width="386.4" height="550"/>
		</g>
	</g>
	<g>
		<defs>
			<path id="SVGID_00000063609390011450824570000013656793872813390476_" d="M174.1,206.2c-9.3,0-18.7,0-28,0
				c-2.7,0-4.7-1.2-5.8-3.7c-0.9-2.1-0.5-4.2,1.1-6c1.4-1.6,3.3-2,5.3-2c18.1,0,36.2,0,54.3,0c4.3,0,6.9,2.3,6.9,5.9
				c0,3.6-2.5,5.8-6.9,5.8C192,206.3,183.1,206.2,174.1,206.2z"/>
		</defs>
		<clipPath id="SVGID_00000129196072867020070280000000277206271760058021_">
			<use xlink:href="#SVGID_00000063609390011450824570000013656793872813390476_"  style="overflow:visible;"/>
		</clipPath>
		<g style="clip-path:url(#SVGID_00000129196072867020070280000000277206271760058021_);">
			
				<linearGradient id="SVGID_00000110447376400093279410000002678810790195634309_" gradientUnits="userSpaceOnUse" x1="281.057" y1="425.3112" x2="281.057" y2="-98.0844">
				<stop  offset="0" style="stop-color:#791689"/>
				<stop  offset="1" style="stop-color:#6231FF"/>
			</linearGradient>
			
				<rect x="87.9" y="-122.4" style="fill:url(#SVGID_00000110447376400093279410000002678810790195634309_);" width="386.4" height="550"/>
		</g>
	</g>
	<g>
		<defs>
			<path id="SVGID_00000090980060665271160710000017276548106791644034_" d="M190.3,234.3c-7,0-14,0-21,0c-4.2,0-7-2.3-7-5.8
				c0-3.5,2.7-5.9,6.9-5.9c14,0,28,0,42,0c4.2,0,7,2.4,7,5.8c0,3.4-2.7,5.8-6.9,5.8C204.3,234.3,197.3,234.3,190.3,234.3z"/>
		</defs>
		<clipPath id="SVGID_00000042707081220431637440000016515923506562549160_">
			<use xlink:href="#SVGID_00000090980060665271160710000017276548106791644034_"  style="overflow:visible;"/>
		</clipPath>
		<g style="clip-path:url(#SVGID_00000042707081220431637440000016515923506562549160_);">
			
				<linearGradient id="SVGID_00000059273771537366441840000003685888945550293384_" gradientUnits="userSpaceOnUse" x1="281.057" y1="425.3112" x2="281.057" y2="-98.0844">
				<stop  offset="0" style="stop-color:#791689"/>
				<stop  offset="1" style="stop-color:#6231FF"/>
			</linearGradient>
			
				<rect x="87.9" y="-122.4" style="fill:url(#SVGID_00000059273771537366441840000003685888945550293384_);" width="386.4" height="550"/>
		</g>
	</g>
	<g>
		<defs>
			<path id="SVGID_00000183936697790756361030000004073439722505738401_" d="M380.8,211c-3.1,0-5-1.1-6-3.4
				c-1.1-2.4-0.7-4.6,1.2-6.4c0.6-0.6,1.3-1.1,2.1-1.6c8.9-5.2,17.8-10.3,26.7-15.4c1.3-0.7,2.6-1.4,4.1-1.3
				c2.4,0.2,4.2,1.4,5.1,3.7c1,2.4,0.4,4.4-1.3,6.1c-0.7,0.8-1.7,1.3-2.6,1.9c-8.6,5-17.3,10-25.9,15
				C383,210.3,381.7,211.1,380.8,211z"/>
		</defs>
		<clipPath id="SVGID_00000047743136668907562240000002246529393898333878_">
			<use xlink:href="#SVGID_00000183936697790756361030000004073439722505738401_"  style="overflow:visible;"/>
		</clipPath>
		<g style="clip-path:url(#SVGID_00000047743136668907562240000002246529393898333878_);">
			
				<linearGradient id="SVGID_00000047739149892737619680000008013629181076952197_" gradientUnits="userSpaceOnUse" x1="281.057" y1="425.3112" x2="281.057" y2="-98.0844">
				<stop  offset="0" style="stop-color:#791689"/>
				<stop  offset="1" style="stop-color:#6231FF"/>
			</linearGradient>
			
				<rect x="87.9" y="-122.4" style="fill:url(#SVGID_00000047739149892737619680000008013629181076952197_);" width="386.4" height="550"/>
		</g>
	</g>
	<g>
		<defs>
			<path id="SVGID_00000016040334289497107580000008666670502679096232_" d="M389,232.2c5.4,1.4,11.6,2.6,17.4,4.9
				c2.8,1.1,3.9,4,3,6.8c-0.9,2.7-3.5,4.7-6.3,4c-5.8-1.4-11.7-2.9-17.4-4.7c-3-0.9-4.2-3.9-3.5-6.8C383,233.7,385.4,232,389,232.2z
				"/>
		</defs>
		<clipPath id="SVGID_00000141430529036845317960000016439805267960544137_">
			<use xlink:href="#SVGID_00000016040334289497107580000008666670502679096232_"  style="overflow:visible;"/>
		</clipPath>
		<g style="clip-path:url(#SVGID_00000141430529036845317960000016439805267960544137_);">
			
				<linearGradient id="SVGID_00000120543463050981449320000016647534629736414879_" gradientUnits="userSpaceOnUse" x1="281.057" y1="425.3112" x2="281.057" y2="-98.0844">
				<stop  offset="0" style="stop-color:#791689"/>
				<stop  offset="1" style="stop-color:#6231FF"/>
			</linearGradient>
			
				<rect x="87.9" y="-122.4" style="fill:url(#SVGID_00000120543463050981449320000016647534629736414879_);" width="386.4" height="550"/>
		</g>
	</g>
	<g>
		<defs>
			<path id="SVGID_00000092423039729304380390000013918982748458340529_" d="M349.6,180.1c1.3-5,2.5-11,4.7-16.7
				c1-2.6,3.9-3.8,6.5-3.2c2.6,0.7,4.6,3.1,4.2,5.9c-0.9,6.1-2.6,12.1-4.7,18c-1,2.6-3.9,3.7-6.6,2.9
				C351,186.2,349.4,184,349.6,180.1z"/>
		</defs>
		<clipPath id="SVGID_00000153694137551306942860000014504106948749460147_">
			<use xlink:href="#SVGID_00000092423039729304380390000013918982748458340529_"  style="overflow:visible;"/>
		</clipPath>
		<g style="clip-path:url(#SVGID_00000153694137551306942860000014504106948749460147_);">
			
				<linearGradient id="SVGID_00000170273604551779283730000007752588586734168971_" gradientUnits="userSpaceOnUse" x1="281.057" y1="425.3112" x2="281.057" y2="-98.0844">
				<stop  offset="0" style="stop-color:#791689"/>
				<stop  offset="1" style="stop-color:#6231FF"/>
			</linearGradient>
			
				<rect x="87.9" y="-122.4" style="fill:url(#SVGID_00000170273604551779283730000007752588586734168971_);" width="386.4" height="550"/>
		</g>
	</g>
	<g>
		<defs>
			<path id="SVGID_00000023971154290325631180000003448224306594405307_" d="M145.8,222.6c3.2,0,6,2.8,5.9,5.9
				c-0.1,3.2-2.8,5.8-6.1,5.7c-3.2-0.1-5.7-2.6-5.7-5.7C139.9,225.3,142.6,222.6,145.8,222.6z"/>
		</defs>
		<clipPath id="SVGID_00000008123535935735524280000011707799616263785901_">
			<use xlink:href="#SVGID_00000023971154290325631180000003448224306594405307_"  style="overflow:visible;"/>
		</clipPath>
		<g style="clip-path:url(#SVGID_00000008123535935735524280000011707799616263785901_);">
			
				<linearGradient id="SVGID_00000005250253512183139260000013662189515667703987_" gradientUnits="userSpaceOnUse" x1="281.057" y1="425.3112" x2="281.057" y2="-98.0844">
				<stop  offset="0" style="stop-color:#791689"/>
				<stop  offset="1" style="stop-color:#6231FF"/>
			</linearGradient>
			
				<rect x="87.9" y="-122.4" style="fill:url(#SVGID_00000005250253512183139260000013662189515667703987_);" width="386.4" height="550"/>
		</g>
	</g>
	<g>
		<defs>
			<path id="SVGID_00000049933681793622026570000016421595967373151390_" d="M226.3,206.2c-3.1,0-5.7-2.5-5.8-5.7
				c0-3.2,2.7-6,5.9-5.9c3,0.1,5.7,2.8,5.7,5.9C232,203.6,229.4,206.2,226.3,206.2z"/>
		</defs>
		<clipPath id="SVGID_00000129885389281983430140000014715794147232557484_">
			<use xlink:href="#SVGID_00000049933681793622026570000016421595967373151390_"  style="overflow:visible;"/>
		</clipPath>
		<g style="clip-path:url(#SVGID_00000129885389281983430140000014715794147232557484_);">
			
				<linearGradient id="SVGID_00000068650852776831668310000002547564831198498192_" gradientUnits="userSpaceOnUse" x1="281.057" y1="425.3112" x2="281.057" y2="-98.0844">
				<stop  offset="0" style="stop-color:#791689"/>
				<stop  offset="1" style="stop-color:#6231FF"/>
			</linearGradient>
			
				<rect x="87.9" y="-122.4" style="fill:url(#SVGID_00000068650852776831668310000002547564831198498192_);" width="386.4" height="550"/>
		</g>
	</g>
</g>
<g>
	<defs>
		<path id="SVGID_00000136388175247063934330000004653279161333755778_" d="M195.1,130.8c-6.6,0-13.2,0-19.8,0c-4.3,0-7-2.2-7-5.7
			c-0.1-3.6,2.7-5.9,7.1-6c13.2,0,26.4,0,39.6,0c5.1,0,8.2,4,6.4,8.1c-1.2,2.6-3.4,3.6-6.2,3.5C208.5,130.8,201.8,130.8,195.1,130.8
			z"/>
	</defs>
	<clipPath id="SVGID_00000083802306894960079490000008351813864585514907_">
		<use xlink:href="#SVGID_00000136388175247063934330000004653279161333755778_"  style="overflow:visible;"/>
	</clipPath>
	<g style="clip-path:url(#SVGID_00000083802306894960079490000008351813864585514907_);">
		
			<linearGradient id="SVGID_00000133531551300584055210000017327004752367520656_" gradientUnits="userSpaceOnUse" x1="266.057" y1="425.3112" x2="266.057" y2="-98.0844">
			<stop  offset="0" style="stop-color:#791689"/>
			<stop  offset="1" style="stop-color:#6231FF"/>
		</linearGradient>
		
			<rect x="72.9" y="-122.4" style="fill:url(#SVGID_00000133531551300584055210000017327004752367520656_);" width="386.4" height="550"/>
	</g>
</g>
</svg>
