<?xml version="1.0" encoding="utf-8"?>
<!-- Generator: Adobe Illustrator 26.5.0, SVG Export Plug-In . SVG Version: 6.00 Build 0)  -->
<svg version="1.1" id="Camada_1" xmlns="http://www.w3.org/2000/svg" xmlns:xlink="http://www.w3.org/1999/xlink" x="0px" y="0px"
	 viewBox="0 0 500 500" style="enable-background:new 0 0 500 500;" xml:space="preserve">
<style type="text/css">
	.st0{clip-path:url(#SVGID_00000040569875805414807710000018205586309553023398_);}
	.st1{fill:url(#SVGID_00000031896242969565676240000006720937345460052384_);}
	.st2{clip-path:url(#SVGID_00000091732227736192117350000017665501640009551019_);}
	.st3{fill:url(#SVGID_00000092430187733449258250000001725928856886618274_);}
	.st4{clip-path:url(#SVGID_00000048462539635430130930000016278119697261156487_);}
	.st5{fill:url(#SVGID_00000034063975387413672170000016729025793232386238_);}
	.st6{clip-path:url(#SVGID_00000129911269006868967420000000251899803620272789_);}
	.st7{fill:url(#SVGID_00000003812368837663988160000011965999931452944317_);}
	.st8{clip-path:url(#SVGID_00000144321267564174767620000005215212096568771230_);}
	.st9{fill:url(#SVGID_00000059279880660447325500000007673366163157672628_);}
	.st10{clip-path:url(#SVGID_00000163032001146100275870000009765943586556296091_);}
	.st11{fill:url(#SVGID_00000095303115169575071660000004925899159401194923_);}
	.st12{clip-path:url(#SVGID_00000023968161771442554870000017113426165451934120_);}
	.st13{fill:url(#SVGID_00000143591799065187311490000010549088050739670145_);}
	.st14{clip-path:url(#SVGID_00000181050581608257135500000003075563570589989518_);}
	.st15{fill:url(#SVGID_00000158738923713631552450000002192941251376266392_);}
	.st16{clip-path:url(#SVGID_00000100348562456950527270000004264376826623601550_);}
	.st17{fill:url(#SVGID_00000115512061858506885650000003217243933294677384_);}
	.st18{clip-path:url(#SVGID_00000000912474868787187750000002288916502179363262_);}
	.st19{fill:url(#SVGID_00000129909210592866865350000012807632232746152081_);}
	.st20{clip-path:url(#SVGID_00000144299229203108860450000016922201882436189577_);}
	.st21{fill:url(#SVGID_00000123441528579413345920000005625286493333742779_);}
	.st22{clip-path:url(#SVGID_00000036962526657179830410000007155158418113734335_);}
	.st23{fill:url(#SVGID_00000064321295210278698360000013498050040650104736_);}
	.st24{clip-path:url(#SVGID_00000065795648116226843100000000001527632869481355_);}
	.st25{fill:url(#SVGID_00000041285892729653683010000017585837513137233335_);}
	.st26{clip-path:url(#SVGID_00000000939868750330986500000004781573750698276249_);}
	.st27{fill:url(#SVGID_00000027566762935703934860000018049984044966153616_);}
	.st28{clip-path:url(#SVGID_00000155834235701038907640000001525769600591030169_);}
	.st29{fill:url(#SVGID_00000178900244199942641350000007718788002401002683_);}
	.st30{clip-path:url(#SVGID_00000013894460869184261190000011669675736634603143_);}
	.st31{fill:url(#SVGID_00000180340723426129178430000007852126404925186202_);}
	.st32{clip-path:url(#SVGID_00000102513723956242428470000014543202144497674418_);}
	.st33{fill:url(#SVGID_00000001647764898037729850000006416580161394129027_);}
	.st34{clip-path:url(#SVGID_00000007403006943664938540000011849276179546197670_);}
	.st35{fill:url(#SVGID_00000178899864747110786300000012397034966717866929_);}
	
		.st36{clip-path:url(#SVGID_00000086678364245703183770000011676929895910495621_);fill:url(#SVGID_00000075141617132272136640000010672539408826160795_);}
	
		.st37{clip-path:url(#SVGID_00000121976751595629988070000002475965709197492670_);fill:url(#SVGID_00000128482363488748533050000010890302442767493760_);}
	
		.st38{clip-path:url(#SVGID_00000121962224496345066310000002930573050615199661_);fill:url(#SVGID_00000110445290064306601920000002405735603257316258_);}
	.st39{clip-path:url(#SVGID_00000085233401633039136730000013728369256825891719_);}
	.st40{fill:url(#SVGID_00000118394517062963831720000013125748082182909580_);}
	.st41{clip-path:url(#SVGID_00000079462765635425998230000008396110197531565467_);}
	.st42{fill:url(#SVGID_00000075866471465128858840000018223810076225428892_);}
	.st43{clip-path:url(#SVGID_00000116202356316039912990000010425300211599729043_);}
	.st44{fill:url(#SVGID_00000088843648299676583930000004171090052334402179_);}
	.st45{clip-path:url(#SVGID_00000177450751265406174300000004015300701065334718_);}
	.st46{fill:url(#SVGID_00000160172352455487443010000001568125453046256552_);}
	.st47{clip-path:url(#SVGID_00000103261050391359005730000003489068042004577702_);}
	.st48{fill:url(#SVGID_00000039098728689532867390000010842253726292026520_);}
	
		.st49{clip-path:url(#SVGID_00000119814919163034087050000005463223323936070288_);fill:url(#SVGID_00000165225103925141983540000012359139081028540827_);}
	
		.st50{clip-path:url(#SVGID_00000113333977399490050300000000501741296823358902_);fill:url(#SVGID_00000056394080529640362190000009320867282433620873_);}
	
		.st51{clip-path:url(#SVGID_00000078743892837169511460000004322193052282980273_);fill:url(#SVGID_00000062878029859270182100000012840859014946829966_);}
	
		.st52{clip-path:url(#SVGID_00000101094074554861729990000006401520776881169835_);fill:url(#SVGID_00000121280571952576387580000002573056604023061412_);}
	
		.st53{clip-path:url(#SVGID_00000054986842483300755470000000699813872511512990_);fill:url(#SVGID_00000046318207491207165600000008785600055198227385_);}
	
		.st54{clip-path:url(#SVGID_00000084487828095337747260000005633581739193115013_);fill:url(#SVGID_00000093855073589081420590000012483719024401474443_);}
	
		.st55{clip-path:url(#SVGID_00000136413985955890995820000001622237450504792477_);fill:url(#SVGID_00000031895276306614644730000017817506188803592872_);}
	
		.st56{clip-path:url(#SVGID_00000061468859887787271780000014754257301576914850_);fill:url(#SVGID_00000061470668204266844850000004645107603734314899_);}
	
		.st57{clip-path:url(#SVGID_00000171712560162936642140000012438197043155168157_);fill:url(#SVGID_00000044893671747594252380000017827121868503923084_);}
	
		.st58{clip-path:url(#SVGID_00000041281009084465372460000015051122030825462710_);fill:url(#SVGID_00000158004846942206933730000010382614939166780570_);}
	
		.st59{clip-path:url(#SVGID_00000014597521336276180960000014247274018855355035_);fill:url(#SVGID_00000162325447033828514380000001491256037989195402_);}
	
		.st60{clip-path:url(#SVGID_00000029762410944228149360000014045682719525878975_);fill:url(#SVGID_00000076603310588968180990000006057898788658537601_);}
	.st61{clip-path:url(#SVGID_00000065756607685535365480000012654128408117451154_);}
	.st62{fill:url(#SVGID_00000083085222939255569610000009046040802652234892_);}
	.st63{clip-path:url(#SVGID_00000156571761369408087640000014163619743674232750_);}
	.st64{fill:url(#SVGID_00000158722494935104865780000017604417887870944929_);}
	.st65{clip-path:url(#SVGID_00000109731241715920475670000012540439886846338212_);}
	.st66{fill:url(#SVGID_00000000928923355130767010000011574740769718876593_);}
	.st67{clip-path:url(#SVGID_00000155118608174020493140000001080029302372550079_);}
	.st68{fill:url(#SVGID_00000052794169383575693770000002044324628206143167_);}
	.st69{clip-path:url(#SVGID_00000093144583444073328260000006921748170312141959_);}
	.st70{fill:url(#SVGID_00000044863629917635206860000003013619733716944273_);}
	.st71{clip-path:url(#SVGID_00000142873619794749989150000014384584302432937866_);}
	.st72{fill:url(#SVGID_00000024714883583667180680000004124898651712944012_);}
	.st73{clip-path:url(#SVGID_00000016759835636800715080000006557900350045778353_);}
	.st74{fill:url(#SVGID_00000121989357198105307680000017665963438586736032_);}
	.st75{clip-path:url(#SVGID_00000141427103109668203950000014642832276952888749_);}
	.st76{fill:url(#SVGID_00000150781271524194578420000001429167070664382129_);}
	.st77{clip-path:url(#SVGID_00000078011101703440403040000002196976061488612521_);}
	.st78{fill:url(#SVGID_00000182496267400762276410000009501911086800757393_);}
	.st79{clip-path:url(#SVGID_00000090279781800288388430000001060238228851186610_);}
	.st80{fill:url(#SVGID_00000054248469979047563230000017976242850025826987_);}
</style>
<g>
	<g>
		<defs>
			<path id="SVGID_1_" d="M97.8,117.4c2.6-3.4,6.1-3.6,10-3.6c87.3,0.1,174.6,0.1,261.8,0.1c7.1,0,8.7,1.7,8.7,8.8
				c0,55.7,0,111.4,0,167c0,5.4-2,8.3-5.8,8.4c-3.9,0.1-6.1-2.9-6.1-8.4c0-39.3,0-78.7,0.1-118c0-2.6-0.6-3.2-3.2-3.2
				c-83.5,0.1-167,0.1-250.6,0c-2.6,0-3.2,0.5-3.2,3.2c0.1,66.5,0.1,132.9,0,199.4c0,2.6,0.5,3.2,3.2,3.2
				c69.3-0.1,138.5-0.1,207.8-0.1c1.3,0,2.6,0,3.8,0.3c2.8,0.6,4.7,3.1,4.6,5.8c-0.1,2.6-1.9,4.9-4.6,5.5c-1,0.2-2.2,0.3-3.2,0.3
				c-71.8,0-143.7,0-215.5,0.1c-3.4,0-5.8-1.3-7.9-3.6C97.8,294.2,97.8,205.8,97.8,117.4z M238.4,125.8c-42,0-84,0-126-0.1
				c-2.2,0-2.8,0.5-2.7,2.7c0.1,8.6,0.1,17.2,0,25.9c0,1.9,0.5,2.4,2.4,2.4c84-0.1,168-0.1,252,0c1.9,0,2.5-0.5,2.4-2.4
				c-0.1-8.5-0.2-17,0-25.6c0.1-2.5-0.6-3-3-3C321.8,125.8,280.1,125.8,238.4,125.8z"/>
		</defs>
		<clipPath id="SVGID_00000181802783272282153950000006608086098103436731_">
			<use xlink:href="#SVGID_1_"  style="overflow:visible;"/>
		</clipPath>
		<g style="clip-path:url(#SVGID_00000181802783272282153950000006608086098103436731_);">
			
				<linearGradient id="SVGID_00000151544546245377400560000004670863423400265916_" gradientUnits="userSpaceOnUse" x1="266.057" y1="425.3112" x2="266.057" y2="-98.0844">
				<stop  offset="0" style="stop-color:#791689"/>
				<stop  offset="1" style="stop-color:#6231FF"/>
			</linearGradient>
			
				<rect x="72.9" y="-122.4" style="fill:url(#SVGID_00000151544546245377400560000004670863423400265916_);" width="386.4" height="550"/>
		</g>
	</g>
	<g>
		<defs>
			<path id="SVGID_00000067195601831478496130000005406308131599443849_" d="M201.9,233.9c13.8,0,27.5,0,41.3,0c1.8,0,2.8-0.5,3.9-2
				c16.7-22.5,43.3-30.7,69.3-20.6c20.4,8,32.7,23.4,36.5,45.1c2.9,16.9-1.2,32.2-11.7,45.7c-0.9,1.1-1.1,1.9,0.1,2.9
				c1.9,1.6,3.4,4.5,5.4,4.8c1.5,0.2,3.4-2.9,5.1-4.5c3.8-3.7,6.8-3.8,10.5-0.1c11.1,10.9,22.2,21.7,33.3,32.6
				c5.6,5.5,7.9,12.1,5.9,19.7c-2,7.6-7,12.5-14.7,14.3c-5.8,1.4-11.2,0.3-16-3.2c-1.1-0.8-2.2-1.7-3.2-2.7
				c-11.1-10.8-22.1-21.6-33.1-32.4c-4-4-4-6.9-0.1-10.9c3.9-3.9,3.7-3.8,0.1-7.9c-2.2-2.5-3.6-2.4-6.4-0.5
				c-25.2,17.8-61.4,11.9-79.7-12.9c-2-2.7-3.9-3.6-7.3-3.6c-26.2,0.2-52.5,0.2-78.7,0.1c-18.4-0.1-32.8-14.8-32.4-33
				c0.4-16.7,14.3-30.8,31-31.1C174.6,233.8,188.2,234,201.9,233.9C201.9,234,201.9,234,201.9,233.9z M341.8,266
				c0-25.9-21.3-47-47.1-46.9c-25.8,0.1-46.8,21.2-46.7,47c0,25.9,21.2,47,47.1,46.9C320.9,312.9,341.9,291.8,341.8,266z
				 M199.5,245.8c-12.1,0-24.2,0-36.3,0c-4.9,0-9.4,1.1-13.3,4.1c-7.2,5.6-9.8,14.2-6.9,22.8c2.7,8.1,10.4,13.5,19.7,13.5
				c24.8,0.1,49.5,0,74.3,0.1c2.3,0,2.5-0.5,1.8-2.6c-3.7-11.7-3.7-23.6,0-35.3c0.7-2.2,0.4-2.6-1.9-2.6
				C224.5,245.9,212,245.8,199.5,245.8z M390.3,352.9c0-2.5-1-4.5-2.7-6.2c-9.7-9.5-19.4-19-29.1-28.5c-1.1-1.1-1.7-1.2-2.8,0
				c-2.6,2.8-5.3,5.6-8.2,8.2c-1.6,1.4-1.5,2.2,0,3.6c9.5,9.1,18.9,18.4,28.3,27.6c0.6,0.6,1.3,1.2,2,1.7c2.6,1.7,5.4,1.9,8.2,0.4
				C388.8,358.4,390.1,355.9,390.3,352.9z"/>
		</defs>
		<clipPath id="SVGID_00000125593397603342679800000006334449034275809691_">
			<use xlink:href="#SVGID_00000067195601831478496130000005406308131599443849_"  style="overflow:visible;"/>
		</clipPath>
		<g style="clip-path:url(#SVGID_00000125593397603342679800000006334449034275809691_);">
			
				<linearGradient id="SVGID_00000125571548962435045700000014192321027436797836_" gradientUnits="userSpaceOnUse" x1="266.057" y1="425.3112" x2="266.057" y2="-98.0844">
				<stop  offset="0" style="stop-color:#791689"/>
				<stop  offset="1" style="stop-color:#6231FF"/>
			</linearGradient>
			
				<rect x="72.9" y="-122.4" style="fill:url(#SVGID_00000125571548962435045700000014192321027436797836_);" width="386.4" height="550"/>
		</g>
	</g>
	<g>
		<defs>
			<path id="SVGID_00000163786695568438383330000016022988732195141301_" d="M194,329.1c-7.4,0-14.8,0.1-22.2,0
				c-4.9-0.1-7.9-3.9-6.2-8c1-2.6,3.1-3.8,5.8-3.8c15.1,0,30.3-0.1,45.4,0c3.7,0,6.1,2.5,6.2,5.8c0,3.5-2.4,5.9-6.3,6
				C209,329.1,201.5,329,194,329.1z"/>
		</defs>
		<clipPath id="SVGID_00000091712651785968023010000001458449557255266232_">
			<use xlink:href="#SVGID_00000163786695568438383330000016022988732195141301_"  style="overflow:visible;"/>
		</clipPath>
		<g style="clip-path:url(#SVGID_00000091712651785968023010000001458449557255266232_);">
			
				<linearGradient id="SVGID_00000154399574895365387310000016471485995158164150_" gradientUnits="userSpaceOnUse" x1="266.057" y1="425.3112" x2="266.057" y2="-98.0844">
				<stop  offset="0" style="stop-color:#791689"/>
				<stop  offset="1" style="stop-color:#6231FF"/>
			</linearGradient>
			
				<rect x="72.9" y="-122.4" style="fill:url(#SVGID_00000154399574895365387310000016471485995158164150_);" width="386.4" height="550"/>
		</g>
	</g>
	<g>
		<defs>
			<path id="SVGID_00000164503776960404128540000016675287753984785585_" d="M247.8,323.2c0,3.2-2.8,5.8-5.9,5.8
				c-3.2,0-5.9-2.9-5.8-6.2c0.1-3.1,2.9-5.8,6-5.7C245.3,317.3,247.9,320,247.8,323.2z"/>
		</defs>
		<clipPath id="SVGID_00000082360263048184178700000007207047609562749839_">
			<use xlink:href="#SVGID_00000164503776960404128540000016675287753984785585_"  style="overflow:visible;"/>
		</clipPath>
		<g style="clip-path:url(#SVGID_00000082360263048184178700000007207047609562749839_);">
			
				<linearGradient id="SVGID_00000067938899907949567870000004895730999388628640_" gradientUnits="userSpaceOnUse" x1="266.057" y1="425.3112" x2="266.057" y2="-98.0844">
				<stop  offset="0" style="stop-color:#791689"/>
				<stop  offset="1" style="stop-color:#6231FF"/>
			</linearGradient>
			
				<rect x="72.9" y="-122.4" style="fill:url(#SVGID_00000067938899907949567870000004895730999388628640_);" width="386.4" height="550"/>
		</g>
	</g>
	<g>
		<defs>
			<path id="SVGID_00000131369503417887889890000010458410574916571571_" d="M340.8,380.2c0-3.2,2.6-5.9,5.7-5.9c3.2-0.1,6,2.8,6,6
				c-0.1,3.1-2.9,5.8-5.9,5.8C343.4,386.1,340.8,383.4,340.8,380.2z"/>
		</defs>
		<clipPath id="SVGID_00000095320311383172937020000011607173275526676111_">
			<use xlink:href="#SVGID_00000131369503417887889890000010458410574916571571_"  style="overflow:visible;"/>
		</clipPath>
		<g style="clip-path:url(#SVGID_00000095320311383172937020000011607173275526676111_);">
			
				<linearGradient id="SVGID_00000039824317042754115230000014167994314555371676_" gradientUnits="userSpaceOnUse" x1="266.057" y1="425.3112" x2="266.057" y2="-98.0844">
				<stop  offset="0" style="stop-color:#791689"/>
				<stop  offset="1" style="stop-color:#6231FF"/>
			</linearGradient>
			
				<rect x="72.9" y="-122.4" style="fill:url(#SVGID_00000039824317042754115230000014167994314555371676_);" width="386.4" height="550"/>
		</g>
	</g>
	<g>
		<defs>
			<path id="SVGID_00000027592405895813350790000005903934791293040544_" d="M283.6,135.3c19,0,38,0,57.1,0c1.1,0,2.2,0,3.3,0.2
				c3,0.6,4.9,2.9,4.9,5.8c0,2.9-2,5.2-5,5.7c-1.1,0.2-2.2,0.1-3.3,0.1c-38,0-76.1,0-114.1,0c-5.4,0-8.3-2-8.4-5.8
				c-0.1-3.9,2.9-6,8.5-6C245.5,135.3,264.6,135.3,283.6,135.3z"/>
		</defs>
		<clipPath id="SVGID_00000107580443500934194060000018234212086759495061_">
			<use xlink:href="#SVGID_00000027592405895813350790000005903934791293040544_"  style="overflow:visible;"/>
		</clipPath>
		<g style="clip-path:url(#SVGID_00000107580443500934194060000018234212086759495061_);">
			
				<linearGradient id="SVGID_00000044151651165015005010000008375148773609659534_" gradientUnits="userSpaceOnUse" x1="266.057" y1="425.3112" x2="266.057" y2="-98.0844">
				<stop  offset="0" style="stop-color:#791689"/>
				<stop  offset="1" style="stop-color:#6231FF"/>
			</linearGradient>
			
				<rect x="72.9" y="-122.4" style="fill:url(#SVGID_00000044151651165015005010000008375148773609659534_);" width="386.4" height="550"/>
		</g>
	</g>
	<g>
		<defs>
			<path id="SVGID_00000091718388932526235040000012986046302869205682_" d="M143.6,141.3c0,3.1-2.8,5.8-5.9,5.8
				c-3.2,0-6.1-3-5.9-6.1c0.1-3.1,3-5.8,6-5.7C140.9,135.4,143.6,138.2,143.6,141.3z"/>
		</defs>
		<clipPath id="SVGID_00000031196981886391053440000008628026199908913824_">
			<use xlink:href="#SVGID_00000091718388932526235040000012986046302869205682_"  style="overflow:visible;"/>
		</clipPath>
		<g style="clip-path:url(#SVGID_00000031196981886391053440000008628026199908913824_);">
			
				<linearGradient id="SVGID_00000133487408793695123430000015321603958059265953_" gradientUnits="userSpaceOnUse" x1="266.057" y1="425.3112" x2="266.057" y2="-98.0844">
				<stop  offset="0" style="stop-color:#791689"/>
				<stop  offset="1" style="stop-color:#6231FF"/>
			</linearGradient>
			
				<rect x="72.9" y="-122.4" style="fill:url(#SVGID_00000133487408793695123430000015321603958059265953_);" width="386.4" height="550"/>
		</g>
	</g>
	<g>
		<defs>
			<path id="SVGID_00000122707996870477434990000011317463836641561484_" d="M159.6,147.1c-3.1,0.1-5.9-2.6-5.9-5.7
				c-0.1-3.3,2.7-6.1,5.9-6.1c3.1,0,5.9,2.9,5.9,5.9C165.4,144.2,162.6,147.1,159.6,147.1z"/>
		</defs>
		<clipPath id="SVGID_00000116225329454480519110000015725492985925499817_">
			<use xlink:href="#SVGID_00000122707996870477434990000011317463836641561484_"  style="overflow:visible;"/>
		</clipPath>
		<g style="clip-path:url(#SVGID_00000116225329454480519110000015725492985925499817_);">
			
				<linearGradient id="SVGID_00000140717466314606086470000004682826698886237104_" gradientUnits="userSpaceOnUse" x1="266.057" y1="425.3112" x2="266.057" y2="-98.0844">
				<stop  offset="0" style="stop-color:#791689"/>
				<stop  offset="1" style="stop-color:#6231FF"/>
			</linearGradient>
			
				<rect x="72.9" y="-122.4" style="fill:url(#SVGID_00000140717466314606086470000004682826698886237104_);" width="386.4" height="550"/>
		</g>
	</g>
	<g>
		<defs>
			<path id="SVGID_00000036228620057231475900000007431867363094388662_" d="M181.3,135.3c3.1,0,5.8,2.7,5.8,5.9
				c0,3.2-2.6,5.9-5.7,6c-3.2,0.1-6-2.7-6-6C175.5,138,178.2,135.3,181.3,135.3z"/>
		</defs>
		<clipPath id="SVGID_00000081635082563214474330000016223079424130732211_">
			<use xlink:href="#SVGID_00000036228620057231475900000007431867363094388662_"  style="overflow:visible;"/>
		</clipPath>
		<g style="clip-path:url(#SVGID_00000081635082563214474330000016223079424130732211_);">
			
				<linearGradient id="SVGID_00000069397563100093474470000003542192629333285760_" gradientUnits="userSpaceOnUse" x1="266.057" y1="425.3112" x2="266.057" y2="-98.0844">
				<stop  offset="0" style="stop-color:#791689"/>
				<stop  offset="1" style="stop-color:#6231FF"/>
			</linearGradient>
			
				<rect x="72.9" y="-122.4" style="fill:url(#SVGID_00000069397563100093474470000003542192629333285760_);" width="386.4" height="550"/>
		</g>
	</g>
	<g>
		<defs>
			<path id="SVGID_00000054236515379440408530000014918877089969533344_" d="M325.1,264.3c0.3,3-0.3,5.6-3.2,7
				c-2.3,1.1-4.4,0.7-6.4-0.8c-1.8-1.4-2.2-3.5-2.3-5.6c-0.3-8.8-7.7-16.8-17.9-17.3c-4.2-0.2-6.5-2.7-6.2-6.4
				c0.2-3.5,2.9-5.6,7.1-5.5C311.2,236.1,324.2,248.9,325.1,264.3z"/>
		</defs>
		<clipPath id="SVGID_00000040535318681279994940000017332973715660904885_">
			<use xlink:href="#SVGID_00000054236515379440408530000014918877089969533344_"  style="overflow:visible;"/>
		</clipPath>
		<g style="clip-path:url(#SVGID_00000040535318681279994940000017332973715660904885_);">
			
				<linearGradient id="SVGID_00000064330416882795911360000014796796863924558267_" gradientUnits="userSpaceOnUse" x1="266.057" y1="425.3112" x2="266.057" y2="-98.0844">
				<stop  offset="0" style="stop-color:#791689"/>
				<stop  offset="1" style="stop-color:#6231FF"/>
			</linearGradient>
			
				<rect x="72.9" y="-122.4" style="fill:url(#SVGID_00000064330416882795911360000014796796863924558267_);" width="386.4" height="550"/>
		</g>
	</g>
	<g>
		<defs>
			<path id="SVGID_00000008867249553372100860000013955462517896256922_" d="M171,272c-3.2,0-5.9-2.6-6-5.7c-0.1-3.2,2.8-6.1,6-6
				c3.1,0.1,5.8,2.9,5.8,5.9C176.8,269.3,174.1,272,171,272z"/>
		</defs>
		<clipPath id="SVGID_00000137822296823941919840000007247320357125532565_">
			<use xlink:href="#SVGID_00000008867249553372100860000013955462517896256922_"  style="overflow:visible;"/>
		</clipPath>
		<g style="clip-path:url(#SVGID_00000137822296823941919840000007247320357125532565_);">
			
				<linearGradient id="SVGID_00000144312221127760706330000009046927210159180944_" gradientUnits="userSpaceOnUse" x1="266.057" y1="425.3112" x2="266.057" y2="-98.0844">
				<stop  offset="0" style="stop-color:#791689"/>
				<stop  offset="1" style="stop-color:#6231FF"/>
			</linearGradient>
			
				<rect x="72.9" y="-122.4" style="fill:url(#SVGID_00000144312221127760706330000009046927210159180944_);" width="386.4" height="550"/>
		</g>
	</g>
	<g>
		<defs>
			<path id="SVGID_00000165924954266945268530000018219993346152203440_" d="M226.2,265.8c0,3-2.7,5.9-5.8,6c-3.2,0.1-6.1-2.8-6.1-6
				c0-3.1,2.7-5.8,5.9-5.8C223.4,260,226.1,262.7,226.2,265.8z"/>
		</defs>
		<clipPath id="SVGID_00000083086162133731355360000001662545884953942167_">
			<use xlink:href="#SVGID_00000165924954266945268530000018219993346152203440_"  style="overflow:visible;"/>
		</clipPath>
		<g style="clip-path:url(#SVGID_00000083086162133731355360000001662545884953942167_);">
			
				<linearGradient id="SVGID_00000163754255203799189310000003676336758447695501_" gradientUnits="userSpaceOnUse" x1="266.057" y1="425.3112" x2="266.057" y2="-98.0844">
				<stop  offset="0" style="stop-color:#791689"/>
				<stop  offset="1" style="stop-color:#6231FF"/>
			</linearGradient>
			
				<rect x="72.9" y="-122.4" style="fill:url(#SVGID_00000163754255203799189310000003676336758447695501_);" width="386.4" height="550"/>
		</g>
	</g>
	<g>
		<defs>
			<path id="SVGID_00000088831843397702547590000015955752833670774663_" d="M195.7,260.1c3.1,0.1,5.7,2.8,5.7,6
				c0,3.2-2.7,5.9-5.8,5.9c-3.2,0-6-2.8-5.9-6.1C189.8,262.7,192.6,260,195.7,260.1z"/>
		</defs>
		<clipPath id="SVGID_00000128478652367385287230000012540456260213302434_">
			<use xlink:href="#SVGID_00000088831843397702547590000015955752833670774663_"  style="overflow:visible;"/>
		</clipPath>
		<g style="clip-path:url(#SVGID_00000128478652367385287230000012540456260213302434_);">
			
				<linearGradient id="SVGID_00000148645319611011403300000010570477700527776672_" gradientUnits="userSpaceOnUse" x1="266.057" y1="425.3112" x2="266.057" y2="-98.0844">
				<stop  offset="0" style="stop-color:#791689"/>
				<stop  offset="1" style="stop-color:#6231FF"/>
			</linearGradient>
			
				<rect x="72.9" y="-122.4" style="fill:url(#SVGID_00000148645319611011403300000010570477700527776672_);" width="386.4" height="550"/>
		</g>
	</g>
</g>
</svg>
