<?xml version="1.0" encoding="utf-8"?>
<!-- Generator: Adobe Illustrator 26.5.0, SVG Export Plug-In . SVG Version: 6.00 Build 0)  -->
<svg version="1.1" id="Camada_1" xmlns="http://www.w3.org/2000/svg" xmlns:xlink="http://www.w3.org/1999/xlink" x="0px" y="0px"
	 viewBox="0 0 500 500" style="enable-background:new 0 0 500 500;" xml:space="preserve">
<style type="text/css">
	.st0{clip-path:url(#SVGID_00000158721791761473801640000006814799770807718290_);}
	.st1{fill:url(#SVGID_00000054235150135260856660000002187325186668967604_);}
	.st2{clip-path:url(#SVGID_00000102546532821455442130000001244311987214694277_);}
	.st3{fill:url(#SVGID_00000144316499057660674390000017212523775242104239_);}
	.st4{clip-path:url(#SVGID_00000153663410419409041240000004366578787149307823_);}
	.st5{fill:url(#SVGID_00000024684629409478351010000000899763722152618652_);}
	.st6{clip-path:url(#SVGID_00000055692845928247137900000004983205163248248766_);}
	.st7{fill:url(#SVGID_00000121960809591102984900000012304413185172781485_);}
	.st8{clip-path:url(#SVGID_00000172413282585250266540000002638275544785629835_);}
	.st9{fill:url(#SVGID_00000181775334355067501870000014424082370840645821_);}
	.st10{clip-path:url(#SVGID_00000163038281489333805390000013384820959377229204_);}
	.st11{fill:url(#SVGID_00000170238345033914157220000017432645595305913734_);}
	.st12{clip-path:url(#SVGID_00000044167976584356338450000015437864156661376958_);}
	.st13{fill:url(#SVGID_00000137133398038691067620000013185750872982627258_);}
	.st14{clip-path:url(#SVGID_00000085929846718685306150000010690123300698139823_);}
	.st15{fill:url(#SVGID_00000097462998965799136500000015112737667167066027_);}
	.st16{clip-path:url(#SVGID_00000075149450977273860770000012154452688836552357_);}
	.st17{fill:url(#SVGID_00000178199233670028530010000004297370214712236688_);}
	.st18{clip-path:url(#SVGID_00000045606381811355015240000008888738049544545435_);}
	.st19{fill:url(#SVGID_00000085959548240715323100000017666308731546584963_);}
	.st20{clip-path:url(#SVGID_00000022536365265065161110000017708953472976226194_);}
	.st21{fill:url(#SVGID_00000161591114444077199670000003975054458529374610_);}
	.st22{clip-path:url(#SVGID_00000150799155058297895660000006475460960761741495_);}
	.st23{fill:url(#SVGID_00000059283008757061799440000011636290901146610309_);}
	.st24{clip-path:url(#SVGID_00000122714629677212265790000017567223982921751971_);}
	.st25{fill:url(#SVGID_00000074409678459300836750000014082312828591791748_);}
	.st26{clip-path:url(#SVGID_00000107574786722847511030000014064566945605665425_);}
	.st27{fill:url(#SVGID_00000011749648374116035710000003628007185455853461_);}
	.st28{clip-path:url(#SVGID_00000178887268018005311300000002544937448918768285_);}
	.st29{fill:url(#SVGID_00000068650077263453919210000006937733678103313068_);}
	.st30{clip-path:url(#SVGID_00000066482667272291009070000010265793977987784845_);}
	.st31{fill:url(#SVGID_00000168111270936572982600000004962891886596189370_);}
	.st32{clip-path:url(#SVGID_00000039851374516868343610000000894761082653742996_);}
	.st33{fill:url(#SVGID_00000162344414311790465830000007778615095268611472_);}
	.st34{clip-path:url(#SVGID_00000095313064116904415170000017889126713519666049_);}
	.st35{fill:url(#SVGID_00000103980444940017919250000001461186129769928612_);}
	
		.st36{clip-path:url(#SVGID_00000010305788387001967810000018030890455673762239_);fill:url(#SVGID_00000037690763015676980690000003423488264938442424_);}
	
		.st37{clip-path:url(#SVGID_00000113326597232710376780000017735045842675310483_);fill:url(#SVGID_00000047018731082600540910000008696051455041304252_);}
	
		.st38{clip-path:url(#SVGID_00000154389102386074794940000006850801871980542864_);fill:url(#SVGID_00000171722077145960763100000014572409492759225996_);}
	.st39{clip-path:url(#SVGID_00000024679877857119384910000015399102977184892588_);}
	.st40{fill:url(#SVGID_00000160179234534349717820000016389395292505584536_);}
	.st41{clip-path:url(#SVGID_00000170236624461246087890000016122395620906454455_);}
	.st42{fill:url(#SVGID_00000155867260504099243030000014998980898397658554_);}
	.st43{clip-path:url(#SVGID_00000092424809583846598140000009320002470715445943_);}
	.st44{fill:url(#SVGID_00000045590102791149987920000004102285347189940894_);}
	.st45{clip-path:url(#SVGID_00000026870882162155007480000016031206599049230727_);}
	.st46{fill:url(#SVGID_00000088119544758436483860000004797013416221650354_);}
	.st47{clip-path:url(#SVGID_00000160163739953853243770000016582485943548669082_);}
	.st48{fill:url(#SVGID_00000117638109465528189210000000017778414755253182_);}
	
		.st49{clip-path:url(#SVGID_00000096020452725602529330000015665684032116922241_);fill:url(#SVGID_00000090991454578454699190000010449041417535854757_);}
	
		.st50{clip-path:url(#SVGID_00000143586542694194281440000011762742393316337078_);fill:url(#SVGID_00000139264577932049671190000007229546518587700127_);}
	
		.st51{clip-path:url(#SVGID_00000016067801268402077070000014898915488836258727_);fill:url(#SVGID_00000052794188183057840790000013798117157919152034_);}
	
		.st52{clip-path:url(#SVGID_00000139285174973104308400000012837267424445967536_);fill:url(#SVGID_00000085969950126689730730000006309701619230584729_);}
	
		.st53{clip-path:url(#SVGID_00000036242379944572591130000006056478335575913656_);fill:url(#SVGID_00000080885282741518601200000009647727942776663441_);}
	
		.st54{clip-path:url(#SVGID_00000002376267568032961920000000309357343049447565_);fill:url(#SVGID_00000137102296355731785230000006217928956426822542_);}
	
		.st55{clip-path:url(#SVGID_00000007410478513105306670000009785779030991702170_);fill:url(#SVGID_00000107552482738827900240000013165498779922184332_);}
	
		.st56{clip-path:url(#SVGID_00000130631805159821950400000015771362719965218483_);fill:url(#SVGID_00000168825276355861480430000007888375296728134038_);}
	
		.st57{clip-path:url(#SVGID_00000060746247294030028690000010931212584141382064_);fill:url(#SVGID_00000164515916113707041140000005145315298568296856_);}
	
		.st58{clip-path:url(#SVGID_00000113312120360565802410000013656357425447182266_);fill:url(#SVGID_00000099649232501809297980000015301212205034076086_);}
	
		.st59{clip-path:url(#SVGID_00000028325700150947151300000011414452976261998525_);fill:url(#SVGID_00000121995649077626939730000008658017172472751274_);}
	
		.st60{clip-path:url(#SVGID_00000150794297992603484700000005039319794981920653_);fill:url(#SVGID_00000165222301553587100440000000201887654946426047_);}
	.st61{clip-path:url(#SVGID_00000038398222068003049710000001076584144248859546_);}
	.st62{fill:url(#SVGID_00000099625517819336143620000001008866314122045340_);}
	.st63{clip-path:url(#SVGID_00000065773746099964783350000009343143434315162536_);}
	.st64{fill:url(#SVGID_00000180347891129595948510000013865250210264463536_);}
	.st65{clip-path:url(#SVGID_00000139256455636629035790000015630053652332350121_);}
	.st66{fill:url(#SVGID_00000147918463409177552610000008446523167980324513_);}
	.st67{clip-path:url(#SVGID_00000168115436594284338070000008022708461441830818_);}
	.st68{fill:url(#SVGID_00000173875214801111507310000008736181423934454702_);}
	.st69{clip-path:url(#SVGID_00000150075489758426228890000001382511312078839740_);}
	.st70{fill:url(#SVGID_00000122722225289023341770000000626783560188912272_);}
	.st71{clip-path:url(#SVGID_00000049217115336414647580000017526324328013809305_);}
	.st72{fill:url(#SVGID_00000043433813288371993950000012881608641447323538_);}
	.st73{clip-path:url(#SVGID_00000144305502805329939150000017064292519422439052_);}
	.st74{fill:url(#SVGID_00000045603549417188224920000012061657199506164391_);}
	.st75{clip-path:url(#SVGID_00000163786780725968188810000001611640113566191763_);}
	.st76{fill:url(#SVGID_00000176007052370754841770000011279680537536153228_);}
	.st77{clip-path:url(#SVGID_00000180336496802116989470000002020871150808191166_);}
	.st78{fill:url(#SVGID_00000178924675832714726330000014735094869921132197_);}
	.st79{clip-path:url(#SVGID_00000002361398240134978550000018093537069367590307_);}
	.st80{fill:url(#SVGID_00000180363450230660824160000008515284161012820107_);}
</style>
<g>
	<g>
		<defs>
			<path id="SVGID_00000032637662748071430920000001463199531479110067_" d="M260.5,110c3.3,1.1,6.7,0.9,10.1,1.5
				c57.1,8.9,101.3,49.6,114.8,105.8c17.7,73.3-28.9,149-102.5,166.2c-33.2,7.8-65,4-95.5-11.2c-1.6-0.8-2.9-0.6-4.4-0.2
				c-21.1,5.7-42.3,11.5-63.4,17.2c-1.6,0.4-3.1,1-4.8,0.6c-3.2-0.9-4.7-3.8-3.7-7.3c5.4-19.4,10.7-38.9,16.4-58.2
				c1.5-5.1,1-9.1-1.3-14c-22.7-48.9-19.2-96.1,10.6-141.2c2.3-3.4,5.3-4.2,8.1-2.4c2.9,1.9,3.3,5.1,0.9,8.6
				c-12.3,17.6-19.9,37.1-22.3,58.5c-3,27.1,1.8,52.7,15.1,76.6c1.9,3.4,2.3,6.5,1.2,10.3c-5.2,17.8-10.1,35.7-15,53.5
				c-0.2,0.7-0.6,1.3-0.2,2.3c6.7-1.8,13.4-3.6,20.1-5.4c13-3.5,26-7,38.9-10.6c2.3-0.6,4.4-0.3,6.5,0.8
				c21,11.2,43.4,16.5,67.1,14.8c44.8-3.2,79.2-24.2,102.8-62.4c12.6-20.5,18.2-43.1,18-67.1c-0.4-51.1-32.9-98.5-81.1-116.8
				c-41.7-15.9-81.6-11.1-118.9,13.5c-0.8,0.5-1.5,1.1-2.3,1.5c-2.7,1.5-5.9,0.7-7.5-1.7c-1.6-2.4-1-5.6,1.6-7.5
				c6-4.4,12.4-8.2,19.2-11.5c15.5-7.6,31.9-12.2,49.1-13.7c0.4,0,0.9,0.1,1.1-0.5C246.3,110,253.4,110,260.5,110z"/>
		</defs>
		<clipPath id="SVGID_00000046317691330730416760000004898047429331927990_">
			<use xlink:href="#SVGID_00000032637662748071430920000001463199531479110067_"  style="overflow:visible;"/>
		</clipPath>
		<g style="clip-path:url(#SVGID_00000046317691330730416760000004898047429331927990_);">
			
				<linearGradient id="SVGID_00000124848297158068595620000016243942662879613075_" gradientUnits="userSpaceOnUse" x1="266.057" y1="425.3112" x2="266.057" y2="-98.0844">
				<stop  offset="0" style="stop-color:#791689"/>
				<stop  offset="1" style="stop-color:#6231FF"/>
			</linearGradient>
			
				<rect x="72.9" y="-122.4" style="fill:url(#SVGID_00000124848297158068595620000016243942662879613075_);" width="386.4" height="550"/>
		</g>
	</g>
	<g>
		<defs>
			<path id="SVGID_00000110458698915478793100000004139748090898782623_" d="M155.5,345.5c3.8-1,7.2-1.9,10.6-2.8
				c6.8-1.8,13.7-3.7,20.5-5.6c2.5-0.7,4.6-0.2,6.8,1c11.2,6.6,23,11.7,35.8,14.2c27.6,5.3,53.3,0.7,77.3-13.9
				c0.9-0.5,1.7-1.1,2.5-1.6c3-1.7,6-1.1,7.7,1.5c1.7,2.6,1,5.8-1.8,7.6c-5.1,3.4-10.4,6.4-15.9,8.9c-36.1,15.6-71.5,14.1-106-4.6
				c-3.2-1.7-5.9-2.1-9.4-1.1c-11.1,3.3-22.3,6.1-33.4,9.1c-5.6,1.5-9-1.9-7.5-7.5c3.2-11.6,6.5-23.3,9.8-34.9
				c0.5-1.7,0.3-2.9-0.6-4.3c-9-14.6-15.1-30.2-17.2-47.3c-4.4-36.2,5.4-68,30-94.9c18.4-20.1,41.3-32.5,68.3-36.2
				c39-5.4,72.9,5.9,100.9,33.8c17.8,17.8,28.5,39.4,32.1,64.3c4.3,29.4-1.8,56.6-17.9,81.6c-1.9,2.9-5.2,3.8-7.8,2.1
				c-2.8-1.7-3.4-5-1.4-8.1c7.6-11.6,13-24.2,15.4-37.9c6.8-39.1-4.4-72.4-33.5-99.3c-16.4-15.1-36.1-23.7-58.2-26.2
				c-47.6-5.4-92.5,21.4-110.1,65.4c-12.9,32.3-10.2,63.7,7,93.9c6.6,11.6,6,7,2.5,19.9C159.9,330.2,157.7,337.6,155.5,345.5z"/>
		</defs>
		<clipPath id="SVGID_00000106865818238930596050000004145461172702491538_">
			<use xlink:href="#SVGID_00000110458698915478793100000004139748090898782623_"  style="overflow:visible;"/>
		</clipPath>
		<g style="clip-path:url(#SVGID_00000106865818238930596050000004145461172702491538_);">
			
				<linearGradient id="SVGID_00000043421158845259395040000016419147733013296827_" gradientUnits="userSpaceOnUse" x1="266.057" y1="425.3112" x2="266.057" y2="-98.0844">
				<stop  offset="0" style="stop-color:#791689"/>
				<stop  offset="1" style="stop-color:#6231FF"/>
			</linearGradient>
			
				<rect x="72.9" y="-122.4" style="fill:url(#SVGID_00000043421158845259395040000016419147733013296827_);" width="386.4" height="550"/>
		</g>
	</g>
	<g>
		<defs>
			<path id="SVGID_00000031893240737009448740000010269402209500100258_" d="M286.8,318.3c-12.6,0-24.1-4-35.3-9.2
				c-30.9-14.3-53.6-37.2-68.8-67.4c-7.1-14.1-7.2-28.5-0.4-42.9c2-4.2,5-7.8,8.6-10.8c6.8-5.6,14.6-6.2,22.7-4.5
				c3.7,0.8,6.5,3.2,8,6.8c3.6,8.2,7.2,16.5,10.8,24.7c2.8,6.5,2.3,12.6-2.9,17.8c-1.7,1.7-3.2,3.8-4.9,5.5
				c-1.3,1.3-1.2,2.2-0.2,3.7c9.4,14.4,22,25,37.3,32.7c0.7,0.4,1.5,0.6,2.3,0.9c2.1,1,3.7,0.6,5-1.5c1.9-2.9,4.1-5.6,6.3-8.3
				c5.2-6.5,10.9-7.7,18.3-4.1c7.3,3.5,14.5,7.2,21.8,10.6c5.6,2.7,7.9,7.2,8,13.1c0.4,22.4-16.5,31.5-31.9,32.7
				C289.9,318.4,288.3,318.3,286.8,318.3z M286.8,307.5c2.6,0,5.1-0.2,7.6-0.6c11.7-2,18-9.5,17.9-21.3c0-1.3-0.2-2.4-1.6-3.1
				c-7.5-3.6-15-7.3-22.5-11.1c-1.8-0.9-3.1-0.4-4.2,1.1c-2.5,3.2-5.1,6.4-7.5,9.7c-3.5,4.8-8.2,5.9-13.8,4.5
				c-6.2-1.6-11.5-4.9-16.8-8.3c-12.9-8.3-23.6-18.8-31.7-31.9c-3.2-5.1-2.7-10,1.3-14.5c1.9-2.1,3.6-4.4,5.6-6.3
				c2-2,2.2-3.9,1.1-6.4c-3.5-7.8-6.8-15.7-10.2-23.5c-0.4-1-0.9-1.8-2-1.9c-4.9-0.5-9.6-0.3-13.4,3.6c-2.5,2.5-4.3,5.4-5.6,8.6
				c-4.6,11.4-3.2,22.4,2.4,32.9c14.4,27,34.9,47.7,63,60.5C266.2,303.8,276,307.4,286.8,307.5z"/>
		</defs>
		<clipPath id="SVGID_00000121970737486293188910000018052200958932410046_">
			<use xlink:href="#SVGID_00000031893240737009448740000010269402209500100258_"  style="overflow:visible;"/>
		</clipPath>
		<g style="clip-path:url(#SVGID_00000121970737486293188910000018052200958932410046_);">
			
				<linearGradient id="SVGID_00000056414028988833691040000011808430612828633013_" gradientUnits="userSpaceOnUse" x1="266.057" y1="425.3112" x2="266.057" y2="-98.0844">
				<stop  offset="0" style="stop-color:#791689"/>
				<stop  offset="1" style="stop-color:#6231FF"/>
			</linearGradient>
			
				<rect x="72.9" y="-122.4" style="fill:url(#SVGID_00000056414028988833691040000011808430612828633013_);" width="386.4" height="550"/>
		</g>
	</g>
	<g>
		<defs>
			<path id="SVGID_00000156579881567322480230000008613576062638280634_" d="M156.3,159.9c-3.1,0-5.6-2.4-5.6-5.4
				c0-2.9,2.5-5.4,5.4-5.5c3-0.1,5.6,2.5,5.6,5.5C161.6,157.5,159.2,159.8,156.3,159.9z"/>
		</defs>
		<clipPath id="SVGID_00000132053729291153947730000016519474536013318312_">
			<use xlink:href="#SVGID_00000156579881567322480230000008613576062638280634_"  style="overflow:visible;"/>
		</clipPath>
		<g style="clip-path:url(#SVGID_00000132053729291153947730000016519474536013318312_);">
			
				<linearGradient id="SVGID_00000121247578768948543750000010331630659489853625_" gradientUnits="userSpaceOnUse" x1="266.057" y1="425.3112" x2="266.057" y2="-98.0844">
				<stop  offset="0" style="stop-color:#791689"/>
				<stop  offset="1" style="stop-color:#6231FF"/>
			</linearGradient>
			
				<rect x="72.9" y="-122.4" style="fill:url(#SVGID_00000121247578768948543750000010331630659489853625_);" width="386.4" height="550"/>
		</g>
	</g>
	<g>
		<defs>
			<path id="SVGID_00000104690156245408668100000008571266175625318826_" d="M329.1,322c3,0,5.3,2.3,5.3,5.3c0,3.1-2.4,5.6-5.5,5.5
				c-2.9,0-5.4-2.5-5.4-5.4C323.5,324.5,326.1,322,329.1,322z"/>
		</defs>
		<clipPath id="SVGID_00000127744947764771379450000001487525039968276362_">
			<use xlink:href="#SVGID_00000104690156245408668100000008571266175625318826_"  style="overflow:visible;"/>
		</clipPath>
		<g style="clip-path:url(#SVGID_00000127744947764771379450000001487525039968276362_);">
			
				<linearGradient id="SVGID_00000085208180621165340260000003379406242699541650_" gradientUnits="userSpaceOnUse" x1="266.057" y1="425.3112" x2="266.057" y2="-98.0844">
				<stop  offset="0" style="stop-color:#791689"/>
				<stop  offset="1" style="stop-color:#6231FF"/>
			</linearGradient>
			
				<rect x="72.9" y="-122.4" style="fill:url(#SVGID_00000085208180621165340260000003379406242699541650_);" width="386.4" height="550"/>
		</g>
	</g>
</g>
</svg>
